<svg width="20" height="20" viewBox="0 0 20 20" fill="none" xmlns="http://www.w3.org/2000/svg">
<path d="M15.3904 18.7497C15.2589 18.7503 15.1305 18.7092 15.0236 18.6326L9.9999 14.9905L4.9761 18.6326C4.86877 18.7104 4.73948 18.7521 4.6069 18.7516C4.47431 18.7511 4.34531 18.7085 4.23856 18.6299C4.1318 18.5512 4.05282 18.4407 4.01301 18.3142C3.97321 18.1878 3.97465 18.0519 4.01715 17.9263L5.97652 12.1229L0.898437 8.64054C0.788445 8.56517 0.705428 8.45662 0.661516 8.33071C0.617608 8.20483 0.615103 8.06821 0.654374 7.94079C0.693645 7.81337 0.772632 7.70187 0.879791 7.62258C0.986953 7.54325 1.11667 7.50025 1.24999 7.49991H7.51477L9.40535 1.68161C9.4461 1.55601 9.52556 1.44652 9.63235 1.36886C9.73919 1.29121 9.86781 1.24939 9.9999 1.24939C10.1319 1.24939 10.2606 1.29121 10.3674 1.36886C10.4742 1.44652 10.5536 1.55601 10.5944 1.68161L12.485 7.50187H18.7498C18.8832 7.50179 19.0133 7.5445 19.1207 7.62362C19.2282 7.70279 19.3075 7.81433 19.3471 7.94183C19.3866 8.06933 19.3842 8.20616 19.3404 8.33221C19.2965 8.45829 19.2134 8.567 19.1033 8.64246L14.0233 12.1229L15.9814 17.9248C16.0131 18.0187 16.0221 18.1188 16.0075 18.2169C15.9929 18.315 15.9551 18.4081 15.8974 18.4887C15.8396 18.5693 15.7636 18.635 15.6754 18.6804C15.5873 18.7258 15.4896 18.7496 15.3904 18.7497Z" fill="#F6B560"/>
</svg>
