<svg width="89" height="19" viewBox="0 0 89 19" fill="none" xmlns="http://www.w3.org/2000/svg">
<g clip-path="url(#clip0_249_1802)">
<mask id="mask0_249_1802" style="mask-type:luminance" maskUnits="userSpaceOnUse" x="0" y="0" width="89" height="19">
<path d="M89 0H0V19H89V0Z" fill="white"/>
</mask>
<g mask="url(#mask0_249_1802)">
<path d="M36.312 19H2.16448C0.96832 19 0 18.01 0 16.787V2.21302C0 0.990038 0.96832 0 2.16448 0H36.312V19Z" fill="#3E3C3C"/>
<path d="M86.8352 19H36.312V0H86.8352C88.0316 0 88.9999 0.990038 88.9999 2.21302V16.7943C88.9999 18.01 88.0316 19 86.8352 19Z" fill="#F6F6F6"/>
<path d="M11.093 11.5238C11.093 12.2445 10.9933 12.8196 10.8011 13.2491C10.6088 13.6785 10.3525 14.0061 10.0463 14.2245C9.74015 14.4502 9.3984 14.5958 9.02105 14.6686C8.64365 14.7414 8.27345 14.7778 7.9103 14.7778H4.30045V4.30231H8.27345C8.78605 4.30231 9.19905 4.38966 9.52655 4.56437C9.85406 4.73909 10.1104 4.96476 10.3027 5.24868C10.4949 5.5326 10.6231 5.84562 10.6943 6.18775C10.7655 6.52988 10.7939 6.87205 10.7868 7.19963C10.7726 8.15326 10.5376 8.80116 10.0819 9.14329C10.381 9.2889 10.6231 9.55097 10.8153 9.9295C11.0004 10.3153 11.093 10.8468 11.093 11.5238ZM8.8715 7.23603C8.8715 6.90845 8.8359 6.66094 8.7576 6.50078C8.67925 6.34061 8.52975 6.26056 8.3019 6.26056H6.24424V8.34982H8.1168C8.4087 8.34982 8.60095 8.24791 8.70775 8.05135C8.81455 7.84753 8.8715 7.57091 8.8715 7.23603ZM9.14206 11.5383C9.14206 11.2471 9.1207 11.0142 9.07086 10.8468C9.02815 10.6793 8.96406 10.541 8.89286 10.4464C8.82165 10.3517 8.74335 10.2862 8.6508 10.2571C8.56535 10.228 8.4799 10.2134 8.39445 10.2134H6.24424V12.7249H8.2307C8.57245 12.7249 8.81455 12.6303 8.9427 12.4483C9.078 12.259 9.14206 11.9606 9.14206 11.5383ZM18.8823 14.7778H12.3746V4.30231H18.7683V6.33336H14.3112V8.26246H18.4123V10.2935H14.3112V12.7322H18.8823V14.7778ZM26.4152 11.6839C26.4152 13.8897 25.2547 14.9962 22.9335 14.9962C21.8086 14.9962 20.9471 14.6686 20.3561 14.0207C19.7651 13.3655 19.4732 12.3609 19.4732 10.9996H21.36C21.3743 11.2981 21.4099 11.582 21.4597 11.8295C21.5095 12.0843 21.6021 12.2954 21.7303 12.4774C21.8584 12.6594 22.0222 12.7977 22.2287 12.8996C22.4351 13.0015 22.6986 13.0525 23.019 13.0525C23.5459 13.0525 23.9232 12.9506 24.1582 12.754C24.3931 12.5575 24.5142 12.1644 24.5142 11.5966C24.5142 11.2981 24.4643 11.0797 24.3718 10.9487C24.2792 10.8176 24.1297 10.7157 23.9303 10.6356C23.7025 10.5483 23.4248 10.4828 23.1044 10.4318C22.784 10.3808 22.4138 10.3008 22.0008 10.1843C21.6804 10.0897 21.3814 9.98045 21.1108 9.85674C20.8403 9.73298 20.5982 9.56552 20.3917 9.33985C20.1852 9.11418 20.0286 8.82301 19.9147 8.46628C19.8007 8.1096 19.7438 7.63641 19.7438 7.05402C19.7438 6.62453 19.7936 6.25326 19.9004 5.94023C20.0001 5.62721 20.1425 5.35788 20.3134 5.13947C20.4843 4.9211 20.6836 4.74638 20.9043 4.60807C21.1322 4.46976 21.36 4.36781 21.595 4.29503C21.8299 4.22223 22.0649 4.17128 22.2999 4.14943C22.5348 4.1276 22.7555 4.11304 22.9478 4.11304C23.6171 4.11304 24.1653 4.22223 24.5783 4.43336C24.9983 4.64448 25.3187 4.92835 25.5537 5.26323C25.7887 5.60536 25.9453 5.99119 26.0236 6.41342C26.1019 6.8429 26.1447 7.26514 26.1447 7.68007H24.2935C24.265 7.50536 24.2436 7.30884 24.2223 7.09772C24.208 6.8866 24.1582 6.69734 24.087 6.54448C24.0229 6.40612 23.9161 6.2824 23.7523 6.1732C23.5886 6.06399 23.3323 6.00574 22.9834 6.00574C22.7128 6.00574 22.485 6.02759 22.307 6.07854C22.129 6.1295 21.9937 6.2023 21.894 6.29696C21.7943 6.39157 21.7231 6.52263 21.6875 6.67549C21.6519 6.82835 21.6306 7.01762 21.6306 7.22873C21.6306 7.48355 21.6875 7.66552 21.7943 7.77473C21.9011 7.88393 22.1076 7.97854 22.4067 8.05865C22.7199 8.146 23.0332 8.21876 23.3536 8.27702C23.674 8.33527 23.9802 8.40807 24.2792 8.48813C24.5783 8.56819 24.8559 8.6774 25.1123 8.81571C25.3686 8.95402 25.5964 9.13603 25.7887 9.37625C25.9809 9.61647 26.1375 9.92224 26.2443 10.2935C26.3654 10.6648 26.4152 11.1306 26.4152 11.6839ZM33.4854 6.32606H31.1429V14.7778H29.1991V6.32606H26.8567V4.30231H33.4783V6.32606H33.4854Z" fill="#F6F6F6"/>
<path d="M46.0451 10.9268C46.0023 11.4728 45.9098 11.9897 45.7674 12.4847C45.6249 12.9797 45.4186 13.4092 45.1478 13.7732C44.8774 14.1444 44.5214 14.4356 44.0871 14.654C43.6528 14.8724 43.1256 14.9816 42.5064 14.9816C41.7944 14.9816 41.1892 14.8579 40.6908 14.6103C40.1924 14.3628 39.7937 13.9988 39.4804 13.5329C39.1742 13.0598 38.9464 12.4774 38.8111 11.7858C38.6687 11.0943 38.5975 10.308 38.5975 9.41992C38.5975 8.60461 38.6758 7.86205 38.8253 7.2069C38.9749 6.5517 39.2098 5.9912 39.5302 5.52527C39.8506 5.06668 40.2565 4.70995 40.7406 4.46243C41.2319 4.21494 41.8157 4.09119 42.4921 4.09119C43.1757 4.09119 43.7311 4.20038 44.1654 4.41878C44.5997 4.63715 44.9415 4.92107 45.2047 5.27049C45.461 5.61992 45.6463 6.0203 45.7601 6.46439C45.8743 6.90842 45.9526 7.35976 46.0023 7.80384H44.1654C44.1226 7.57088 44.0729 7.34521 44.0156 7.13409C43.966 6.92298 43.8804 6.73371 43.7738 6.58085C43.6669 6.42798 43.5175 6.30422 43.3323 6.20957C43.147 6.11496 42.898 6.07126 42.5847 6.07126C42.2073 6.07126 41.8869 6.13677 41.6306 6.26052C41.3743 6.38428 41.1607 6.5881 41.0041 6.87202C40.8474 7.15594 40.7335 7.52722 40.6623 7.98581C40.5911 8.44444 40.5626 9.01224 40.5626 9.68929C40.5626 10.3735 40.6125 10.9195 40.705 11.349C40.7976 11.7713 40.9329 12.1061 41.1037 12.3391C41.2746 12.5793 41.4811 12.7394 41.7303 12.8268C41.9795 12.9142 42.2501 12.9579 42.5562 12.9579C42.8693 12.9579 43.1115 12.9069 43.2968 12.8122C43.4816 12.7176 43.6241 12.5793 43.7311 12.3973C43.8376 12.2153 43.9232 12.0042 43.9801 11.7567C44.0443 11.5092 44.1012 11.2326 44.1654 10.9195H46.0451V10.9268ZM53.8415 14.7778H51.9049V10.2571H48.9855V14.7778H47.0489V4.30229H48.9855V8.21148H51.9049V4.30229H53.8415V14.7778ZM62.0081 14.7778H59.9787L59.4447 12.6157H56.8675L56.3404 14.7778H54.3824L57.1876 4.30229H59.1101L62.0081 14.7778ZM58.9607 10.6648L58.1632 7.29425L57.3446 10.6648H58.9607ZM67.6968 14.7778L64.735 8.40074V14.7778H62.7984V4.30229H64.6995L67.6827 10.6356V4.30229H69.6052V14.7778H67.6968ZM78.3413 14.7778H76.7676V13.715C76.6537 13.9697 76.5113 14.1735 76.3405 14.3337C76.1698 14.4939 75.9845 14.6176 75.7851 14.7122C75.5857 14.8069 75.3722 14.8651 75.1587 14.9015C74.9452 14.9379 74.7313 14.9525 74.525 14.9525C73.813 14.9525 73.2148 14.8142 72.7378 14.5303C72.2607 14.2464 71.8764 13.8605 71.5846 13.3655C71.2924 12.8705 71.0861 12.2808 70.965 11.6038C70.8439 10.9268 70.7798 10.1988 70.7798 9.41992C70.7798 5.86744 72.0827 4.09119 74.6958 4.09119C75.3436 4.09119 75.8848 4.20038 76.3333 4.41148C76.7821 4.62259 77.145 4.91377 77.4226 5.2632C77.7003 5.61992 77.8997 6.0276 78.0208 6.47894C78.1419 6.93753 78.2061 7.41072 78.2061 7.8912H76.2267C76.2267 7.68008 76.2126 7.46167 76.1839 7.236C76.1553 7.01033 76.0915 6.81377 75.9918 6.63906C75.8921 6.46434 75.7355 6.31878 75.5288 6.20957C75.3226 6.10036 75.0449 6.04215 74.6889 6.04215C74.3329 6.04215 74.0265 6.10036 73.7844 6.22412C73.5353 6.34788 73.3359 6.53715 73.1793 6.79922C73.0227 7.06129 72.9089 7.40346 72.8374 7.81839C72.7664 8.23333 72.7309 8.73562 72.7309 9.31801C72.7309 9.95861 72.7591 10.5119 72.8233 10.9705C72.8875 11.4291 72.9941 11.8004 73.1507 12.077C73.3073 12.3609 73.5139 12.5648 73.7702 12.6958C74.0265 12.8268 74.3543 12.8923 74.7527 12.8923C74.9807 12.8923 75.1942 12.8559 75.4009 12.7831C75.6071 12.7103 75.7851 12.5939 75.9349 12.441C76.0842 12.2881 76.2053 12.0843 76.2909 11.8441C76.376 11.6038 76.4116 11.3126 76.4047 10.9705H74.5819V9.04139H78.3554V14.7778H78.3413ZM86.0522 14.7778H79.5587V4.30229H85.9384V6.33333H81.4953V8.26243H85.5824V10.2935H81.4953V12.7322H86.0522V14.7778Z" fill="#3E3C3C"/>
</g>
</g>
<defs>
<clipPath id="clip0_249_1802">
<rect width="89" height="19" rx="4" fill="white"/>
</clipPath>
</defs>
</svg>
