<svg width="114" height="28" viewBox="0 0 114 28" fill="none" xmlns="http://www.w3.org/2000/svg">
<path d="M14 1C6.8203 1 1 6.8203 1 14C1 16.424 1.66342 18.693 2.8186 20.6354M14 1C21.1797 1 27 6.8203 27 14C27 16.3122 26.3964 18.4834 25.3381 20.3646C25.2869 20.4555 25.2347 20.5458 25.1814 20.6354M14 1L2.8186 20.6354M14 1L25.1814 20.6354M2.8186 20.6354C5.085 24.4463 9.24428 27 14 27C18.7557 27 22.915 24.4463 25.1814 20.6354M2.8186 20.6354H25.1814M6.6875 13.7292C8.84375 11.2766 14.7875 7.8431 21.3125 13.7292M21.3125 14.2011C19.1563 16.6536 13.2125 20.0871 6.6875 14.2011M16.1667 14C16.1667 15.1966 15.1966 16.1667 14 16.1667C12.8034 16.1667 11.8333 15.1966 11.8333 14C11.8333 12.8034 12.8034 11.8333 14 11.8333C15.1966 11.8333 16.1667 12.8034 16.1667 14Z" stroke="#F6B560" stroke-width="2"/>
<path d="M36.65 22V6.6H39.18L42.26 12.408C42.304 12.496 42.37 12.54 42.458 12.54C42.5607 12.54 42.634 12.496 42.678 12.408L45.736 6.6H48.288V22H45.362V14.718L45.648 12.914C45.6773 12.7967 45.648 12.7233 45.56 12.694C45.472 12.65 45.3913 12.6867 45.318 12.804L42.964 16.764H41.82L39.62 12.804C39.5613 12.6867 39.488 12.65 39.4 12.694C39.312 12.7233 39.2753 12.7967 39.29 12.914L39.576 14.718V22H36.65ZM50.5916 22L54.4856 6.6H58.7756L62.6696 22H59.5676L56.9716 10.648L56.8176 9.306C56.803 9.18867 56.737 9.13 56.6196 9.13C56.517 9.13 56.4583 9.18867 56.4436 9.306L56.2896 10.648L53.6936 22H50.5916ZM54.1116 18.304L54.7056 15.752H58.5336L59.1496 18.304H54.1116ZM52.1096 9.152V6.6H54.8816L54.5516 9.152H52.1096ZM68.5136 22.22C67.5456 22.22 66.6802 22.1027 65.9176 21.868C65.1549 21.6187 64.4289 21.2593 63.7396 20.79L64.6636 18.326C65.3089 18.7367 65.9176 19.0373 66.4896 19.228C67.0616 19.4187 67.7069 19.514 68.4256 19.514C69.2029 19.514 69.8116 19.338 70.2516 18.986C70.6916 18.6193 70.9116 18.106 70.9116 17.446C70.9116 16.9033 70.7502 16.4487 70.4276 16.082C70.1196 15.7153 69.6282 15.488 68.9536 15.4L68.0736 15.29C67.2816 15.202 66.5702 14.9893 65.9396 14.652C65.3089 14.3 64.8102 13.8233 64.4436 13.222C64.0769 12.6207 63.8936 11.8873 63.8936 11.022C63.8936 10.0833 64.0989 9.26933 64.5096 8.58C64.9202 7.876 65.5216 7.326 66.3136 6.93C67.1202 6.534 68.1176 6.336 69.3056 6.336C70.2002 6.336 70.9996 6.45333 71.7036 6.688C72.4076 6.92267 73.0016 7.216 73.4856 7.568L72.6276 9.9C72.1142 9.592 71.5862 9.372 71.0436 9.24C70.5009 9.108 69.9509 9.042 69.3936 9.042C68.4989 9.042 67.8462 9.218 67.4356 9.57C67.0249 9.922 66.8196 10.34 66.8196 10.824C66.8196 11.3373 66.9662 11.726 67.2596 11.99C67.5529 12.254 67.9562 12.4227 68.4696 12.496L69.3936 12.606C70.8162 12.7527 71.9089 13.244 72.6716 14.08C73.4489 14.9013 73.8376 15.9793 73.8376 17.314C73.8376 18.3407 73.6249 19.228 73.1996 19.976C72.7889 20.7093 72.1876 21.2667 71.3956 21.648C70.6036 22.0293 69.6429 22.22 68.5136 22.22ZM81.2213 22.264C80.4586 22.264 79.7326 22.1467 79.0433 21.912C78.354 21.6627 77.7453 21.2813 77.2173 20.768C76.8946 20.416 76.6013 20.0053 76.3373 19.536C76.0733 19.052 75.868 18.3993 75.7213 17.578C75.5893 16.742 75.5233 15.6493 75.5233 14.3C75.5233 12.9507 75.5893 11.8653 75.7213 11.044C75.868 10.208 76.0733 9.548 76.3373 9.064C76.6013 8.58 76.8946 8.16933 77.2173 7.832C77.7453 7.31867 78.354 6.94467 79.0433 6.71C79.7326 6.46067 80.4586 6.336 81.2213 6.336C81.9986 6.336 82.732 6.46067 83.4213 6.71C84.1106 6.94467 84.712 7.31867 85.2253 7.832C85.5773 8.16933 85.878 8.58 86.1273 9.064C86.3766 9.548 86.5746 10.208 86.7213 11.044C86.868 11.8653 86.9413 12.9507 86.9413 14.3C86.9413 15.6493 86.868 16.742 86.7213 17.578C86.5746 18.3993 86.3766 19.052 86.1273 19.536C85.878 20.0053 85.5773 20.416 85.2253 20.768C84.712 21.2813 84.1106 21.6627 83.4213 21.912C82.732 22.1467 81.9986 22.264 81.2213 22.264ZM81.2213 19.514C81.9546 19.514 82.5413 19.3013 82.9813 18.876C83.4213 18.436 83.6633 17.8347 83.7073 17.072C83.7366 16.6027 83.7586 16.1407 83.7733 15.686C83.8026 15.2313 83.8173 14.7693 83.8173 14.3C83.8173 13.8307 83.8026 13.3687 83.7733 12.914C83.7586 12.4447 83.7366 11.9827 83.7073 11.528C83.6633 10.7653 83.4213 10.1713 82.9813 9.746C82.5413 9.306 81.9546 9.086 81.2213 9.086C80.488 9.086 79.9013 9.306 79.4613 9.746C79.036 10.1713 78.794 10.7653 78.7353 11.528C78.706 11.9827 78.6766 12.4447 78.6473 12.914C78.6326 13.3687 78.6253 13.8307 78.6253 14.3C78.6253 14.7693 78.6326 15.2313 78.6473 15.686C78.6766 16.1407 78.706 16.6027 78.7353 17.072C78.794 17.8347 79.036 18.436 79.4613 18.876C79.9013 19.3013 80.488 19.514 81.2213 19.514ZM89.6734 22V6.6H92.2034L97.4174 15.928C97.4908 16.0307 97.5714 16.06 97.6594 16.016C97.7474 15.972 97.7768 15.8987 97.7474 15.796L97.4394 13.992V6.6H100.365V22H97.7694L92.6434 12.826C92.5848 12.7087 92.5114 12.672 92.4234 12.716C92.3354 12.7453 92.2988 12.8187 92.3134 12.936L92.5994 14.762V22H89.6734ZM107.422 22.22C106.454 22.22 105.588 22.1027 104.826 21.868C104.063 21.6187 103.337 21.2593 102.648 20.79L103.572 18.326C104.217 18.7367 104.826 19.0373 105.398 19.228C105.97 19.4187 106.615 19.514 107.334 19.514C108.111 19.514 108.72 19.338 109.16 18.986C109.6 18.6193 109.82 18.106 109.82 17.446C109.82 16.9033 109.658 16.4487 109.336 16.082C109.028 15.7153 108.536 15.488 107.862 15.4L106.982 15.29C106.19 15.202 105.478 14.9893 104.848 14.652C104.217 14.3 103.718 13.8233 103.352 13.222C102.985 12.6207 102.802 11.8873 102.802 11.022C102.802 10.0833 103.007 9.26933 103.418 8.58C103.828 7.876 104.43 7.326 105.222 6.93C106.028 6.534 107.026 6.336 108.214 6.336C109.108 6.336 109.908 6.45333 110.612 6.688C111.316 6.92267 111.91 7.216 112.394 7.568L111.536 9.9C111.022 9.592 110.494 9.372 109.952 9.24C109.409 9.108 108.859 9.042 108.302 9.042C107.407 9.042 106.754 9.218 106.344 9.57C105.933 9.922 105.728 10.34 105.728 10.824C105.728 11.3373 105.874 11.726 106.168 11.99C106.461 12.254 106.864 12.4227 107.378 12.496L108.302 12.606C109.724 12.7527 110.817 13.244 111.58 14.08C112.357 14.9013 112.746 15.9793 112.746 17.314C112.746 18.3407 112.533 19.228 112.108 19.976C111.697 20.7093 111.096 21.2667 110.304 21.648C109.512 22.0293 108.551 22.22 107.422 22.22Z" fill="#F6F6F6"/>
</svg>
