<svg width="44" height="44" viewBox="0 0 44 44" fill="none" xmlns="http://www.w3.org/2000/svg">
<path d="M22 1C10.402 1 1 10.402 1 22C1 25.9157 2.07168 29.581 3.93774 32.7188M22 1C33.598 1 43 10.402 43 22C43 25.7351 42.0249 29.2424 40.3154 32.2812C40.2327 32.4282 40.1483 32.574 40.0623 32.7188M22 1L3.93774 32.7188M22 1L40.0623 32.7188M3.93774 32.7188C7.59884 38.8748 14.3177 43 22 43C29.6823 43 36.4012 38.8748 40.0623 32.7188M3.93774 32.7188H40.0623M10.1875 21.5625C13.6707 17.6007 23.2721 12.0542 33.8125 21.5625M33.8125 22.3248C30.3293 26.2866 20.7279 31.833 10.1875 22.3248M25.5 22C25.5 23.933 23.933 25.5 22 25.5C20.067 25.5 18.5 23.933 18.5 22C18.5 20.067 20.067 18.5 22 18.5C23.933 18.5 25.5 20.067 25.5 22Z" stroke="#F6B560" stroke-width="2"/>
</svg>
