<svg width="190" height="190" viewBox="0 0 190 190" fill="none" xmlns="http://www.w3.org/2000/svg">
<path d="M8 0C5.19974 0 3.79961 0 2.73005 0.544967C1.78924 1.02433 1.02433 1.78924 0.544967 2.73005C0 3.79961 0 5.19974 0 8V9.04347V18.0869V27.1304V36.1739V45.2173V54.2608V55.3043C0 58.1045 0 59.5047 0.544967 60.5742C1.02433 61.515 1.78924 62.2799 2.73005 62.7593C3.79961 63.3043 5.19974 63.3043 8 63.3043H9.04347H18.0869H27.1304H36.1739H45.2173H54.2608H55.3043C58.1045 63.3043 59.5047 63.3043 60.5742 62.7593C61.515 62.2799 62.2799 61.515 62.7593 60.5742C63.3043 59.5047 63.3043 58.1045 63.3043 55.3043V54.2608V45.2173V36.1739V27.1304V18.0869V9.04347V8C63.3043 5.19974 63.3043 3.79961 62.7593 2.73005C62.2799 1.78924 61.515 1.02433 60.5742 0.544967C59.5047 0 58.1045 0 55.3043 0H54.2608H45.2173H36.1739H27.1304H18.0869H9.04347H8ZM80.3477 0C77.5475 0 76.1473 0 75.0778 0.544967C74.137 1.02433 73.3721 1.78924 72.8927 2.73005C72.3477 3.79961 72.3477 5.19974 72.3477 8V9.04347V13.5652C72.3477 16.0625 74.3722 18.0869 76.8695 18.0869C79.3668 18.0869 81.3912 16.0625 81.3912 13.5652C81.3912 11.0679 83.4157 9.04347 85.9129 9.04347H90.4347V8C90.4347 5.19974 90.4347 3.79961 89.8897 2.73005C89.4103 1.78924 88.6454 1.02433 87.7046 0.544967C86.6351 0 85.2349 0 82.4347 0H81.3912H80.3477ZM90.4347 9.04347V10.0869C90.4347 12.8872 90.4347 14.2873 90.9796 15.3569C91.459 16.2977 92.2239 17.0626 93.1647 17.542C94.2343 18.0869 95.6344 18.0869 98.4347 18.0869H99.4781V17.0435C99.4781 14.2432 99.4781 12.8431 98.9332 11.7735C98.4538 10.8327 97.6889 10.0678 96.7481 9.58844C95.6785 9.04347 94.2784 9.04347 91.4781 9.04347H90.4347ZM99.4781 18.0869V27.1304H108.522H109.565C112.365 27.1304 113.765 27.1304 114.835 26.5854C115.776 26.1061 116.541 25.3412 117.02 24.4004C117.565 23.3308 117.565 21.9307 117.565 19.1304V18.0869V9.04347V4.52173C117.565 2.02445 115.541 0 113.043 0C110.546 0 108.522 2.02445 108.522 4.52173V9.04347V10.0869C108.522 12.8872 108.522 14.2873 107.977 15.3569C107.497 16.2977 106.732 17.0626 105.792 17.542C104.722 18.0869 103.322 18.0869 100.522 18.0869H99.4781ZM99.4781 27.1304H90.4347H81.3912H76.8695C74.3722 27.1304 72.3477 29.1549 72.3477 31.6521C72.3477 34.1494 74.3722 36.1739 76.8695 36.1739H81.3912H85.9129C88.4102 36.1739 90.4347 38.1983 90.4347 40.6956C90.4347 43.1929 88.4102 45.2173 85.9129 45.2173C83.4157 45.2173 81.3912 47.2418 81.3912 49.7391V54.2608H85.9129C88.4102 54.2608 90.4347 56.2853 90.4347 58.7825C90.4347 61.2798 92.4591 63.3043 94.9564 63.3043H99.4781V58.7825C99.4781 56.2853 101.503 54.2608 104 54.2608C106.497 54.2608 108.522 56.2853 108.522 58.7825C108.522 61.2798 106.497 63.3043 104 63.3043H99.4781V67.826C99.4781 70.3233 97.4537 72.3477 94.9564 72.3477C92.4591 72.3477 90.4347 74.3722 90.4347 76.8695V81.3912H99.4781H100.522C103.322 81.3912 104.722 81.3912 105.792 81.9362C106.732 82.4155 107.497 83.1804 107.977 84.1213C108.522 85.1908 108.522 86.5909 108.522 89.3912V90.4347H109.565C112.365 90.4347 113.765 90.4347 114.835 89.8897C115.776 89.4103 116.541 88.6454 117.02 87.7046C117.565 86.6351 117.565 85.2349 117.565 82.4347V81.3912V72.3477V63.3043V54.2608V49.7391C117.565 47.2418 115.541 45.2173 113.043 45.2173C110.546 45.2173 108.522 43.1929 108.522 40.6956C108.522 38.1983 106.497 36.1739 104 36.1739C101.503 36.1739 99.4781 34.1494 99.4781 31.6521V27.1304ZM108.522 90.4347H104C101.503 90.4347 99.4781 92.4591 99.4781 94.9564C99.4781 97.4537 97.4537 99.4781 94.9564 99.4781H90.4347V108.522V117.565H91.4781C94.2784 117.565 95.6785 117.565 96.7481 118.11C97.6889 118.589 98.4538 119.354 98.9332 120.295C99.4781 121.365 99.4781 122.765 99.4781 125.565V126.609V127.652C99.4781 130.452 99.4781 131.852 98.9332 132.922C98.4538 133.863 97.6889 134.628 96.7481 135.107C95.6785 135.652 94.2784 135.652 91.4781 135.652H90.4347H85.9129C83.4157 135.652 81.3912 133.628 81.3912 131.13C81.3912 128.633 83.4157 126.609 85.9129 126.609C88.4102 126.609 90.4347 124.584 90.4347 122.087V117.565H89.3912C86.5909 117.565 85.1908 117.565 84.1213 117.02C83.1804 116.541 82.4155 115.776 81.9362 114.835C81.3912 113.765 81.3912 112.365 81.3912 109.565V108.522V99.4781H76.8695C74.3722 99.4781 72.3477 97.4537 72.3477 94.9564C72.3477 92.4591 74.3722 90.4347 76.8695 90.4347C79.3668 90.4347 81.3912 92.4591 81.3912 94.9564V99.4781H90.4347V90.4347V81.3912H81.3912H80.3477C77.5475 81.3912 76.1473 81.3912 75.0778 80.8462C74.137 80.3669 73.3721 79.602 72.8927 78.6612C72.3477 77.5916 72.3477 76.1915 72.3477 73.3912V72.3477H63.3043H54.2608H49.7391C47.2418 72.3477 45.2173 74.3722 45.2173 76.8695C45.2173 79.3668 43.1929 81.3912 40.6956 81.3912H36.1739V85.9129C36.1739 88.4102 34.1494 90.4347 31.6521 90.4347C29.1549 90.4347 27.1304 88.4102 27.1304 85.9129C27.1304 83.4157 29.1549 81.3912 31.6521 81.3912H36.1739V80.3477C36.1739 77.5475 36.1739 76.1473 35.6289 75.0778C35.1495 74.137 34.3846 73.3721 33.4438 72.8927C32.3743 72.3477 30.9741 72.3477 28.1739 72.3477H27.1304H22.6087C20.1114 72.3477 18.0869 74.3722 18.0869 76.8695C18.0869 79.3668 16.0625 81.3912 13.5652 81.3912H9.04347V90.4347V99.4781V108.522H18.0869V107.478C18.0869 104.678 18.0869 103.278 18.6319 102.208C19.1113 101.267 19.8762 100.502 20.817 100.023C21.8865 99.4781 23.2867 99.4781 26.0869 99.4781H27.1304H36.1739H45.2173V98.4347C45.2173 95.6344 45.2173 94.2343 45.7623 93.1647C46.2417 92.2239 47.0066 91.459 47.9474 90.9796C49.0169 90.4347 50.4171 90.4347 53.2173 90.4347H54.2608V85.9129C54.2608 83.4157 56.2853 81.3912 58.7825 81.3912C61.2798 81.3912 63.3043 83.4157 63.3043 85.9129C63.3043 88.4102 61.2798 90.4347 58.7825 90.4347H54.2608V99.4781H58.7825C61.2798 99.4781 63.3043 101.503 63.3043 104C63.3043 106.497 61.2798 108.522 58.7825 108.522H54.2608V109.565C54.2608 112.365 54.2608 113.765 54.8058 114.835C55.2851 115.776 56.05 116.541 56.9909 117.02C58.0604 117.565 59.4605 117.565 62.2608 117.565H63.3043H64.3477C67.148 117.565 68.5481 117.565 69.6177 118.11C70.5585 118.589 71.3234 119.354 71.8028 120.295C72.3477 121.365 72.3477 122.765 72.3477 125.565V126.609V135.652V140.174C72.3477 142.671 74.3722 144.695 76.8695 144.695C79.3668 144.695 81.3912 146.72 81.3912 149.217V153.739H90.4347H99.4781H104C106.497 153.739 108.522 155.763 108.522 158.261C108.522 160.758 106.497 162.782 104 162.782H99.4781H90.4347H89.3912C86.5909 162.782 85.1908 162.782 84.1213 162.237C83.1804 161.758 82.4155 160.993 81.9362 160.052C81.3912 158.983 81.3912 157.583 81.3912 154.782V153.739H80.3477C77.5475 153.739 76.1473 153.739 75.0778 154.284C74.137 154.763 73.3721 155.528 72.8927 156.469C72.3477 157.539 72.3477 158.939 72.3477 161.739V162.782V167.304C72.3477 169.801 74.3722 171.826 76.8695 171.826C79.3668 171.826 81.3912 173.85 81.3912 176.348C81.3912 178.845 79.3668 180.869 76.8695 180.869C74.3722 180.869 72.3477 182.894 72.3477 185.391C72.3477 187.888 74.3722 189.913 76.8695 189.913H81.3912H85.9129C88.4102 189.913 90.4347 187.888 90.4347 185.391C90.4347 182.894 92.4591 180.869 94.9564 180.869C97.4537 180.869 99.4781 182.894 99.4781 185.391C99.4781 187.888 101.503 189.913 104 189.913H108.522H117.565H126.609H131.13C133.628 189.913 135.652 187.888 135.652 185.391C135.652 182.894 137.676 180.869 140.174 180.869C142.671 180.869 144.695 182.894 144.695 185.391C144.695 187.888 146.72 189.913 149.217 189.913H153.739H162.782H167.304C169.801 189.913 171.826 187.888 171.826 185.391C171.826 182.894 169.801 180.869 167.304 180.869H162.782H161.739C158.939 180.869 157.539 180.869 156.469 180.324C155.528 179.845 154.763 179.08 154.284 178.139C153.739 177.07 153.739 175.67 153.739 172.869V171.826H149.217C146.72 171.826 144.695 169.801 144.695 167.304C144.695 164.807 142.671 162.782 140.174 162.782H135.652V163.826C135.652 166.626 135.652 168.026 135.107 169.096C134.628 170.037 133.863 170.802 132.922 171.281C131.852 171.826 130.452 171.826 127.652 171.826H126.609H117.565V176.348C117.565 178.845 115.541 180.869 113.043 180.869C110.546 180.869 108.522 178.845 108.522 176.348C108.522 173.85 110.546 171.826 113.043 171.826H117.565V162.782V153.739V149.217C117.565 146.72 119.59 144.695 122.087 144.695C124.584 144.695 126.609 142.671 126.609 140.174C126.609 137.676 124.584 135.652 122.087 135.652H117.565H113.043C110.546 135.652 108.522 133.628 108.522 131.13C108.522 128.633 110.546 126.609 113.043 126.609C115.541 126.609 117.565 124.584 117.565 122.087V117.565V108.522V104C117.565 101.503 115.541 99.4781 113.043 99.4781C110.546 99.4781 108.522 97.4537 108.522 94.9564V90.4347ZM135.652 162.782V158.261C135.652 155.763 133.628 153.739 131.13 153.739C128.633 153.739 126.609 155.763 126.609 158.261C126.609 160.758 128.633 162.782 131.13 162.782H135.652ZM153.739 171.826H162.782H163.826C166.626 171.826 168.026 171.826 169.096 171.281C170.037 170.802 170.802 170.037 171.281 169.096C171.826 168.026 171.826 166.626 171.826 163.826V162.782H162.782H161.739C158.939 162.782 157.539 162.782 156.469 163.327C155.528 163.807 154.763 164.572 154.284 165.512C153.739 166.582 153.739 167.982 153.739 170.782V171.826ZM171.826 162.782H172.869C175.67 162.782 177.07 162.782 178.139 162.237C179.08 161.758 179.845 160.993 180.324 160.052C180.869 158.983 180.869 157.583 180.869 154.782V153.739V144.695V135.652V134.609C180.869 131.808 180.869 130.408 180.324 129.339C179.845 128.398 179.08 127.633 178.139 127.154C177.07 126.609 175.67 126.609 172.869 126.609H171.826H162.782H161.739C158.939 126.609 157.539 126.609 156.469 126.064C155.528 125.584 154.763 124.819 154.284 123.878C153.739 122.809 153.739 121.409 153.739 118.609V117.565H144.695V122.087C144.695 124.584 142.671 126.609 140.174 126.609C137.676 126.609 135.652 128.633 135.652 131.13V135.652V140.174C135.652 142.671 137.676 144.695 140.174 144.695C142.671 144.695 144.695 142.671 144.695 140.174C144.695 137.676 146.72 135.652 149.217 135.652C151.714 135.652 153.739 137.676 153.739 140.174V144.695V145.739C153.739 148.539 153.739 149.939 154.284 151.009C154.763 151.95 155.528 152.715 156.469 153.194C157.539 153.739 158.939 153.739 161.739 153.739H162.782H163.826C166.626 153.739 168.026 153.739 169.096 154.284C170.037 154.763 170.802 155.528 171.281 156.469C171.826 157.539 171.826 158.939 171.826 161.739V162.782ZM144.695 117.565V116.522C144.695 113.721 144.695 112.321 144.151 111.252C143.671 110.311 142.906 109.546 141.965 109.067C140.896 108.522 139.496 108.522 136.695 108.522H135.652H131.13C128.633 108.522 126.609 110.546 126.609 113.043C126.609 115.541 128.633 117.565 131.13 117.565H135.652H144.695ZM153.739 117.565H154.782C157.583 117.565 158.983 117.565 160.052 117.02C160.993 116.541 161.758 115.776 162.237 114.835C162.782 113.765 162.782 112.365 162.782 109.565V108.522V99.4781V94.9564C162.782 92.4591 164.807 90.4347 167.304 90.4347C169.801 90.4347 171.826 92.4591 171.826 94.9564C171.826 97.4537 173.85 99.4781 176.348 99.4781C178.845 99.4781 180.869 101.503 180.869 104V108.522H181.913C184.713 108.522 186.113 108.522 187.183 107.977C188.124 107.497 188.888 106.732 189.368 105.792C189.913 104.722 189.913 103.322 189.913 100.522V99.4781V94.9564C189.913 92.4591 187.888 90.4347 185.391 90.4347C182.894 90.4347 180.869 88.4102 180.869 85.9129C180.869 83.4157 182.894 81.3912 185.391 81.3912C187.888 81.3912 189.913 79.3668 189.913 76.8695C189.913 74.3722 187.888 72.3477 185.391 72.3477H180.869H176.348C173.85 72.3477 171.826 74.3722 171.826 76.8695C171.826 79.3668 169.801 81.3912 167.304 81.3912C164.807 81.3912 162.782 79.3668 162.782 76.8695C162.782 74.3722 160.758 72.3477 158.261 72.3477C155.763 72.3477 153.739 74.3722 153.739 76.8695C153.739 79.3668 151.714 81.3912 149.217 81.3912C146.72 81.3912 144.695 83.4157 144.695 85.9129V90.4347H145.739C148.539 90.4347 149.939 90.4347 151.009 90.9796C151.95 91.459 152.715 92.2239 153.194 93.1647C153.739 94.2343 153.739 95.6344 153.739 98.4347V99.4781V108.522V117.565ZM144.695 90.4347H140.174C137.676 90.4347 135.652 92.4591 135.652 94.9564C135.652 97.4537 137.676 99.4781 140.174 99.4781C142.671 99.4781 144.695 97.4537 144.695 94.9564V90.4347ZM180.869 108.522H176.348C173.85 108.522 171.826 110.546 171.826 113.043C171.826 115.541 173.85 117.565 176.348 117.565C178.845 117.565 180.869 115.541 180.869 113.043V108.522ZM54.2608 108.522V99.4781H45.2173V108.522H54.2608ZM45.2173 108.522H36.1739H27.1304H18.0869V109.565C18.0869 112.365 18.0869 113.765 18.6319 114.835C19.1113 115.776 19.8762 116.541 20.817 117.02C21.8865 117.565 23.2867 117.565 26.0869 117.565H27.1304H36.1739H37.2173C40.0176 117.565 41.4177 117.565 42.4873 117.02C43.4281 116.541 44.193 115.776 44.6724 114.835C45.2173 113.765 45.2173 112.365 45.2173 109.565V108.522ZM9.04347 108.522H4.52173C2.02445 108.522 0 110.546 0 113.043C0 115.541 2.02445 117.565 4.52173 117.565C7.01902 117.565 9.04347 115.541 9.04347 113.043V108.522ZM9.04347 81.3912V76.8695C9.04347 74.3722 7.01902 72.3477 4.52173 72.3477C2.02445 72.3477 0 74.3722 0 76.8695C0 79.3668 2.02445 81.3912 4.52173 81.3912H9.04347ZM72.3477 72.3477H73.3912C76.1915 72.3477 77.5916 72.3477 78.6612 71.8028C79.602 71.3234 80.3669 70.5585 80.8462 69.6177C81.3912 68.5481 81.3912 67.148 81.3912 64.3477V63.3043V54.2608H80.3477C77.5475 54.2608 76.1473 54.2608 75.0778 54.8058C74.137 55.2851 73.3721 56.05 72.8927 56.9909C72.3477 58.0604 72.3477 59.4605 72.3477 62.2608V63.3043V72.3477ZM134.609 0C131.808 0 130.408 0 129.339 0.544967C128.398 1.02433 127.633 1.78924 127.154 2.73005C126.609 3.79961 126.609 5.19974 126.609 8V9.04347V18.0869V27.1304V36.1739V45.2173V54.2608V55.3043C126.609 58.1045 126.609 59.5047 127.154 60.5742C127.633 61.515 128.398 62.2799 129.339 62.7593C130.408 63.3043 131.808 63.3043 134.609 63.3043H135.652H144.695H153.739H162.782H171.826H180.869H181.913C184.713 63.3043 186.113 63.3043 187.183 62.7593C188.124 62.2799 188.888 61.515 189.368 60.5742C189.913 59.5047 189.913 58.1045 189.913 55.3043V54.2608V45.2173V36.1739V27.1304V18.0869V9.04347V8C189.913 5.19974 189.913 3.79961 189.368 2.73005C188.888 1.78924 188.124 1.02433 187.183 0.544967C186.113 0 184.713 0 181.913 0H180.869H171.826H162.782H153.739H144.695H135.652H134.609ZM9.04347 17.0435C9.04347 14.2432 9.04347 12.8431 9.58844 11.7735C10.0678 10.8327 10.8327 10.0678 11.7735 9.58844C12.8431 9.04347 14.2432 9.04347 17.0435 9.04347H18.0869H27.1304H36.1739H45.2173H46.2608C49.0611 9.04347 50.4612 9.04347 51.5308 9.58844C52.4716 10.0678 53.2365 10.8327 53.7158 11.7735C54.2608 12.8431 54.2608 14.2432 54.2608 17.0435V18.0869V27.1304V36.1739V45.2173V46.2608C54.2608 49.0611 54.2608 50.4612 53.7158 51.5308C53.2365 52.4716 52.4716 53.2365 51.5308 53.7158C50.4612 54.2608 49.0611 54.2608 46.2608 54.2608H45.2173H36.1739H27.1304H18.0869H17.0435C14.2432 54.2608 12.8431 54.2608 11.7735 53.7158C10.8327 53.2365 10.0678 52.4716 9.58844 51.5308C9.04347 50.4612 9.04347 49.0611 9.04347 46.2608V45.2173V36.1739V27.1304V18.0869V17.0435ZM135.652 17.0435C135.652 14.2432 135.652 12.8431 136.197 11.7735C136.676 10.8327 137.441 10.0678 138.382 9.58844C139.452 9.04347 140.852 9.04347 143.652 9.04347H144.695H153.739H162.782H171.826H172.869C175.67 9.04347 177.07 9.04347 178.139 9.58844C179.08 10.0678 179.845 10.8327 180.324 11.7735C180.869 12.8431 180.869 14.2432 180.869 17.0435V18.0869V27.1304V36.1739V45.2173V46.2608C180.869 49.0611 180.869 50.4612 180.324 51.5308C179.845 52.4716 179.08 53.2365 178.139 53.7158C177.07 54.2608 175.67 54.2608 172.869 54.2608H171.826H162.782H153.739H144.695H143.652C140.852 54.2608 139.452 54.2608 138.382 53.7158C137.441 53.2365 136.676 52.4716 136.197 51.5308C135.652 50.4612 135.652 49.0611 135.652 46.2608V45.2173V36.1739V27.1304V18.0869V17.0435ZM26.0869 18.0869C23.2867 18.0869 21.8865 18.0869 20.817 18.6319C19.8762 19.1113 19.1113 19.8762 18.6319 20.817C18.0869 21.8865 18.0869 23.2867 18.0869 26.0869V27.1304V36.1739V37.2173C18.0869 40.0176 18.0869 41.4177 18.6319 42.4873C19.1113 43.4281 19.8762 44.193 20.817 44.6724C21.8865 45.2173 23.2867 45.2173 26.0869 45.2173H27.1304H36.1739H37.2173C40.0176 45.2173 41.4177 45.2173 42.4873 44.6724C43.4281 44.193 44.193 43.4281 44.6724 42.4873C45.2173 41.4177 45.2173 40.0176 45.2173 37.2173V36.1739V27.1304V26.0869C45.2173 23.2867 45.2173 21.8865 44.6724 20.817C44.193 19.8762 43.4281 19.1113 42.4873 18.6319C41.4177 18.0869 40.0176 18.0869 37.2173 18.0869H36.1739H27.1304H26.0869ZM152.695 18.0869C149.895 18.0869 148.495 18.0869 147.426 18.6319C146.485 19.1113 145.72 19.8762 145.24 20.817C144.695 21.8865 144.695 23.2867 144.695 26.0869V27.1304V36.1739V37.2173C144.695 40.0176 144.695 41.4177 145.24 42.4873C145.72 43.4281 146.485 44.193 147.426 44.6724C148.495 45.2173 149.895 45.2173 152.695 45.2173H153.739H162.782H163.826C166.626 45.2173 168.026 45.2173 169.096 44.6724C170.037 44.193 170.802 43.4281 171.281 42.4873C171.826 41.4177 171.826 40.0176 171.826 37.2173V36.1739V27.1304V26.0869C171.826 23.2867 171.826 21.8865 171.281 20.817C170.802 19.8762 170.037 19.1113 169.096 18.6319C168.026 18.0869 166.626 18.0869 163.826 18.0869H162.782H153.739H152.695ZM131.13 72.3477C128.633 72.3477 126.609 74.3722 126.609 76.8695C126.609 79.3668 128.633 81.3912 131.13 81.3912C133.628 81.3912 135.652 79.3668 135.652 76.8695C135.652 74.3722 133.628 72.3477 131.13 72.3477ZM8 126.609C5.19974 126.609 3.79961 126.609 2.73005 127.154C1.78924 127.633 1.02433 128.398 0.544967 129.339C0 130.408 0 131.808 0 134.609V135.652V144.695V153.739V162.782V171.826V180.869V181.913C0 184.713 0 186.113 0.544967 187.183C1.02433 188.124 1.78924 188.888 2.73005 189.368C3.79961 189.913 5.19974 189.913 8 189.913H9.04347H18.0869H27.1304H36.1739H45.2173H54.2608H55.3043C58.1045 189.913 59.5047 189.913 60.5742 189.368C61.515 188.888 62.2799 188.124 62.7593 187.183C63.3043 186.113 63.3043 184.713 63.3043 181.913V180.869V171.826V162.782V153.739V144.695V135.652V134.609C63.3043 131.808 63.3043 130.408 62.7593 129.339C62.2799 128.398 61.515 127.633 60.5742 127.154C59.5047 126.609 58.1045 126.609 55.3043 126.609H54.2608H45.2173H36.1739H27.1304H18.0869H9.04347H8ZM9.04347 143.652C9.04347 140.852 9.04347 139.452 9.58844 138.382C10.0678 137.441 10.8327 136.676 11.7735 136.197C12.8431 135.652 14.2432 135.652 17.0435 135.652H18.0869H27.1304H36.1739H45.2173H46.2608C49.0611 135.652 50.4612 135.652 51.5308 136.197C52.4716 136.676 53.2365 137.441 53.7158 138.382C54.2608 139.452 54.2608 140.852 54.2608 143.652V144.695V153.739V162.782V171.826V172.869C54.2608 175.67 54.2608 177.07 53.7158 178.139C53.2365 179.08 52.4716 179.845 51.5308 180.324C50.4612 180.869 49.0611 180.869 46.2608 180.869H45.2173H36.1739H27.1304H18.0869H17.0435C14.2432 180.869 12.8431 180.869 11.7735 180.324C10.8327 179.845 10.0678 179.08 9.58844 178.139C9.04347 177.07 9.04347 175.67 9.04347 172.869V171.826V162.782V153.739V144.695V143.652ZM26.0869 144.695C23.2867 144.695 21.8865 144.695 20.817 145.24C19.8762 145.72 19.1113 146.485 18.6319 147.426C18.0869 148.495 18.0869 149.895 18.0869 152.695V153.739V162.782V163.826C18.0869 166.626 18.0869 168.026 18.6319 169.096C19.1113 170.037 19.8762 170.802 20.817 171.281C21.8865 171.826 23.2867 171.826 26.0869 171.826H27.1304H36.1739H37.2173C40.0176 171.826 41.4177 171.826 42.4873 171.281C43.4281 170.802 44.193 170.037 44.6724 169.096C45.2173 168.026 45.2173 166.626 45.2173 163.826V162.782V153.739V152.695C45.2173 149.895 45.2173 148.495 44.6724 147.426C44.193 146.485 43.4281 145.72 42.4873 145.24C41.4177 144.695 40.0176 144.695 37.2173 144.695H36.1739H27.1304H26.0869ZM185.391 171.826C182.894 171.826 180.869 173.85 180.869 176.348C180.869 178.845 182.894 180.869 185.391 180.869C187.888 180.869 189.913 178.845 189.913 176.348C189.913 173.85 187.888 171.826 185.391 171.826Z" fill="#F6F6F6"/>
</svg>
