<svg width="105" height="26" viewBox="0 0 105 26" fill="none" xmlns="http://www.w3.org/2000/svg">
<g clip-path="url(#clip0_175_5626)">
<path d="M27.5887 9.1536H38.2185V11.1395H34.0395V22.3058H31.74V11.1395H27.579V9.15283H27.588L27.5887 9.1536ZM37.7647 12.7821H39.7297V14.6205H39.7665C39.8317 14.3605 39.9517 14.1097 40.128 13.868C40.5048 13.3501 41.0149 12.9486 41.6017 12.708C41.8998 12.5875 42.2171 12.5245 42.5377 12.5221C42.7777 12.5221 42.9547 12.5313 43.0477 12.5412C43.14 12.5504 43.2322 12.5688 43.3342 12.578V14.6014C43.1837 14.5745 43.0324 14.5528 42.8805 14.5364C42.7296 14.5182 42.5779 14.509 42.426 14.5088C42.0735 14.5088 41.7405 14.583 41.4255 14.723C41.1105 14.8614 40.8412 15.0747 40.6102 15.3447C40.3638 15.6465 40.175 15.9928 40.0537 16.3655C39.915 16.7739 39.8497 17.2373 39.8497 17.7672V22.2966H37.7557V12.7821H37.7647ZM52.9635 22.3065H50.9062V20.979H50.8687C50.6092 21.4623 50.2297 21.8431 49.7197 22.1307C49.2097 22.4182 48.6907 22.5665 48.1627 22.5665C46.9117 22.5665 46.0027 22.2607 45.4477 21.6382C44.8912 21.0165 44.613 20.079 44.613 18.8256V12.7829H46.7077V18.6214C46.7077 19.4572 46.8652 20.0514 47.19 20.3948C47.505 20.7381 47.9587 20.9148 48.5332 20.9148C48.978 20.9148 49.3395 20.8498 49.6357 20.7098C49.9327 20.5707 50.1735 20.3948 50.3497 20.1623C50.535 19.9398 50.6647 19.6614 50.7487 19.3456C50.8312 19.0298 50.8687 18.6864 50.8687 18.3155V12.7921H52.9635V22.3065ZM56.5312 19.2531C56.5965 19.8648 56.8275 20.2931 57.2265 20.5431C57.6337 20.7848 58.116 20.9148 58.6815 20.9148C58.8765 20.9148 59.0985 20.8957 59.349 20.8681C59.5987 20.8398 59.8395 20.7748 60.0532 20.6922C60.2752 20.6081 60.4507 20.4781 60.5992 20.3114C60.7387 20.1432 60.8032 19.9306 60.7942 19.6614C60.793 19.5365 60.766 19.4132 60.715 19.2997C60.6639 19.1861 60.59 19.0847 60.498 19.0022C60.312 18.8264 60.081 18.6964 59.793 18.5847C59.4721 18.4714 59.1438 18.3814 58.8105 18.3155C58.44 18.2414 58.0695 18.1572 57.69 18.0739C57.3077 17.9895 56.9301 17.8841 56.559 17.7581C56.2109 17.6443 55.8826 17.4753 55.5862 17.2572C55.2974 17.0517 55.0619 16.7777 54.9 16.4588C54.7245 16.1338 54.6405 15.7347 54.6405 15.2521C54.6405 14.7321 54.7702 14.3054 55.0207 13.9521C55.2734 13.6018 55.5996 13.3134 55.9755 13.1079C56.3795 12.8901 56.8137 12.7367 57.2632 12.6529C57.7357 12.5695 58.1902 12.5229 58.6162 12.5229C59.1075 12.5229 59.58 12.5787 60.0255 12.6812C60.4568 12.7753 60.8679 12.9481 61.239 13.1912C61.6005 13.4237 61.8967 13.7296 62.1382 14.1012C62.379 14.4721 62.5275 14.9271 62.592 15.4563H60.405C60.303 14.9554 60.0802 14.6121 59.7195 14.4446C59.358 14.2687 58.941 14.1846 58.4775 14.1846C58.329 14.1846 58.1527 14.1938 57.9495 14.2221C57.7536 14.2486 57.5609 14.2953 57.3742 14.3612C57.2036 14.4253 57.0488 14.5266 56.9205 14.6579C56.8582 14.7265 56.8098 14.8069 56.778 14.8946C56.7462 14.9822 56.7317 15.0754 56.7352 15.1688C56.7352 15.4288 56.8275 15.633 57.0037 15.7905C57.18 15.948 57.4117 16.078 57.699 16.1897C57.9862 16.2921 58.311 16.3847 58.6815 16.4588C59.052 16.533 59.4315 16.6164 59.8215 16.7005C60.201 16.7838 60.5715 16.8955 60.9427 17.0155C61.3132 17.1364 61.6372 17.3038 61.9252 17.5172C62.2125 17.7305 62.4442 17.9905 62.6197 18.3064C62.796 18.6214 62.889 19.0206 62.889 19.4848C62.889 20.0507 62.7592 20.5248 62.499 20.924C62.2402 21.314 61.9065 21.6382 61.4985 21.8798C61.0714 22.1307 60.6086 22.3123 60.1267 22.4182C59.6365 22.5281 59.1362 22.584 58.6342 22.5849C58.0721 22.5913 57.5116 22.5227 56.967 22.3807C56.457 22.2415 56.0122 22.0374 55.6417 21.769C55.2756 21.4977 54.9745 21.1452 54.7612 20.7381C54.5482 20.3298 54.4365 19.8373 54.4185 19.2714H56.5312V19.2531ZM63.4447 12.7837H65.0295V9.92366H67.1242V12.7837H69.0142V14.3513H67.125V19.4389C67.125 19.6607 67.134 19.8472 67.1527 20.014C67.1707 20.1722 67.2172 20.3114 67.2825 20.4223C67.3534 20.5388 67.461 20.6273 67.5877 20.6731C67.7272 20.729 67.9027 20.7572 68.1442 20.7572C68.292 20.7572 68.4405 20.7572 68.589 20.7473C68.7375 20.7381 68.8852 20.7198 69.0337 20.6823V22.3065C68.802 22.3348 68.5702 22.3532 68.3572 22.3807C68.1327 22.4073 67.9068 22.4198 67.6807 22.4182C67.125 22.4182 66.6802 22.3624 66.3457 22.2607C66.0127 22.1582 65.7435 22.0007 65.5582 21.7965C65.3632 21.5923 65.2432 21.3415 65.169 21.0348C65.0968 20.69 65.0566 20.339 65.049 19.9864V14.3689H63.4642V12.7814H63.4455L63.4447 12.7837ZM70.497 12.7837H72.4807V14.073H72.5182C72.8137 13.5162 73.2217 13.1262 73.7497 12.8854C74.2894 12.6407 74.8744 12.5171 75.465 12.5229C76.215 12.5229 76.8637 12.6529 77.4202 12.9221C77.976 13.1821 78.4395 13.5445 78.81 14.008C79.1805 14.4721 79.4497 15.0105 79.635 15.6238C79.8237 16.2618 79.9175 16.925 79.9132 17.5914C79.9132 18.2314 79.83 18.8531 79.6627 19.4481C79.5091 20.0219 79.2548 20.5627 78.912 21.044C78.5751 21.5081 78.1374 21.8863 77.6332 22.149C77.1142 22.4274 76.512 22.5665 75.8077 22.5665C75.4999 22.5662 75.1927 22.538 74.8897 22.4824C74.5875 22.4269 74.2924 22.3369 74.01 22.214C73.7294 22.0946 73.467 21.935 73.2307 21.7399C72.9975 21.5502 72.7944 21.3251 72.6285 21.0723H72.591V25.825H70.497V12.7821V12.7837ZM77.8185 17.5539C77.8189 17.1306 77.7629 16.7092 77.652 16.3013C77.5493 15.9148 77.3796 15.5502 77.151 15.2246C76.934 14.9149 76.6525 14.6579 76.3267 14.4721C75.9768 14.2793 75.5845 14.1804 75.1867 14.1846C74.3062 14.1846 73.6387 14.4905 73.194 15.1038C72.7492 15.7163 72.5265 16.5338 72.5265 17.5539C72.5265 18.0364 72.5827 18.4822 72.7027 18.8906C72.8227 19.299 72.99 19.6522 73.2307 19.949C73.4632 20.2464 73.7407 20.4781 74.0655 20.6448C74.3895 20.8215 74.7697 20.9048 75.1957 20.9048C75.678 20.9048 76.0762 20.8031 76.41 20.6081C76.7332 20.4185 77.0115 20.1588 77.2252 19.8472C77.4382 19.5314 77.5965 19.1781 77.6887 18.7797C77.774 18.3769 77.8175 17.966 77.8185 17.5539ZM81.516 9.1536H83.6107V11.1403H81.516V9.1536ZM81.516 12.7829H83.6107V22.3065H81.516V12.7829ZM85.4827 9.1536H87.5775V22.3065H85.4827V9.1536ZM93.9997 22.5665C93.2392 22.5665 92.5627 22.4365 91.9702 22.1865C91.4022 21.9489 90.8881 21.595 90.4597 21.1465C90.0433 20.689 89.7243 20.1484 89.523 19.559C89.3025 18.9083 89.193 18.2239 89.199 17.5355C89.199 16.8114 89.31 16.1438 89.523 15.5305C89.7245 14.9413 90.0434 14.401 90.4597 13.9437C90.867 13.4979 91.377 13.1545 91.9702 12.9037C92.5627 12.6529 93.2392 12.5229 93.9997 12.5229C94.7595 12.5229 95.436 12.6529 96.0292 12.9037C96.6225 13.1545 97.1227 13.5078 97.5397 13.9437C97.9561 14.4009 98.2748 14.9412 98.4757 15.5305C98.6887 16.143 98.7997 16.8114 98.7997 17.5355C98.7997 18.2697 98.6887 18.9464 98.4757 19.559C98.2749 20.1485 97.9562 20.6891 97.5397 21.1465C97.1317 21.5923 96.6225 21.9357 96.0292 22.1865C95.436 22.4365 94.7595 22.5665 93.9997 22.5665ZM93.9997 20.9048C94.4632 20.9048 94.8705 20.8031 95.2132 20.6081C95.5473 20.4185 95.8356 20.1552 96.057 19.8373C96.279 19.5222 96.4365 19.1598 96.5482 18.7606C96.6502 18.3614 96.7057 17.9531 96.7057 17.5355C96.7057 17.1272 96.6502 16.728 96.5482 16.3197C96.4527 15.9323 96.286 15.567 96.057 15.243C95.8351 14.9281 95.5468 14.6681 95.2132 14.4821C94.8705 14.2871 94.4632 14.1846 93.9997 14.1846C93.5362 14.1846 93.1282 14.2871 92.7855 14.4821C92.4541 14.6709 92.1665 14.9305 91.9425 15.243C91.7167 15.5689 91.5503 15.9336 91.4512 16.3197C91.3486 16.7166 91.2954 17.1251 91.293 17.5355C91.293 17.9531 91.3492 18.3614 91.4512 18.7606C91.5532 19.1598 91.7197 19.5222 91.9425 19.8373C92.1645 20.1531 92.4427 20.4131 92.7855 20.6081C93.1282 20.8123 93.5362 20.9048 93.9997 20.9048ZM99.4117 12.7837H100.996V9.92366H103.091V12.7837H104.981V14.3513H103.091V19.4389C103.091 19.6607 103.1 19.8472 103.118 20.014C103.137 20.1722 103.183 20.3114 103.249 20.4223C103.319 20.5389 103.427 20.6274 103.554 20.6731C103.693 20.729 103.869 20.7572 104.11 20.7572C104.258 20.7572 104.407 20.7572 104.555 20.7473C104.704 20.7381 104.851 20.7198 105 20.6823V22.3065C104.768 22.3348 104.536 22.3532 104.323 22.3807C104.099 22.4073 103.873 22.4198 103.647 22.4182C103.091 22.4182 102.646 22.3624 102.312 22.2607C101.979 22.1582 101.71 22.0007 101.524 21.7965C101.33 21.5923 101.209 21.3415 101.135 21.0348C101.063 20.69 101.023 20.339 101.015 19.9864V14.3689H99.4305V12.7814H99.4117V12.7837Z" fill="#F6F6F6"/>
<path d="M25.1422 9.15277H15.5415L12.576 0L9.6 9.15353L0 9.14359L7.77525 14.8055L4.80075 23.9483L12.576 18.2956L20.3422 23.9483L17.3767 14.8055L25.1422 9.15277Z" fill="#04DA8D"/>
<path d="M18.0435 16.8762L17.376 14.8061L12.576 18.2956L18.0435 16.8762Z" fill="#126849"/>
</g>
<defs>
<clipPath id="clip0_175_5626">
<rect width="105" height="26" fill="white"/>
</clipPath>
</defs>
</svg>
