<svg width="36" height="36" viewBox="0 0 36 36" fill="none" xmlns="http://www.w3.org/2000/svg">
<rect width="36" height="36" fill="#F6B560" fill-opacity="0.32"/>
<path fill-rule="evenodd" clip-rule="evenodd" d="M8 26.7741C9.19911 25.2516 10.7208 24.0229 12.452 23.179C14.1832 22.3352 16.0795 21.8981 18 21.9C19.9205 21.8981 21.8168 22.3352 23.548 23.179C25.2792 24.0229 26.8009 25.2516 28 26.7741C26.6918 28.1152 25.1342 29.1793 23.4175 29.9047C21.7009 30.6301 19.8595 31.0024 18 31C16.1405 31.0024 14.2991 30.6301 12.5825 29.9047C10.8658 29.1793 9.30824 28.1152 8 26.7741ZM24.4048 11.5C24.4048 13.2239 23.73 14.8772 22.5289 16.0962C21.3277 17.3152 19.6987 18 18 18C16.3013 18 14.6723 17.3152 13.4711 16.0962C12.27 14.8772 11.5952 13.2239 11.5952 11.5C11.5952 9.77609 12.27 8.12279 13.4711 6.90381C14.6723 5.68482 16.3013 5 18 5C19.6987 5 21.3277 5.68482 22.5289 6.90381C23.73 8.12279 24.4048 9.77609 24.4048 11.5Z" fill="#F6B560"/>
</svg>
