<svg width="143" height="30" viewBox="0 0 143 30" fill="none" xmlns="http://www.w3.org/2000/svg">
<g clip-path="url(#clip0_192_6620)">
<mask id="mask0_192_6620" style="mask-type:luminance" maskUnits="userSpaceOnUse" x="0" y="0" width="143" height="30">
<path d="M143 0H0V30H143V0Z" fill="white"/>
</mask>
<g mask="url(#mask0_192_6620)">
<path d="M58.344 30H3.47776C1.55584 30 0 28.4368 0 26.5057V3.49425C0 1.56322 1.55584 0 3.47776 0H58.344V30Z" fill="#1F1E1E"/>
<path d="M139.522 30H58.344V0H139.522C141.444 0 143 1.56322 143 3.49425V26.5173C143 28.4368 141.444 30 139.522 30Z" fill="#F6F6F6"/>
<path d="M17.8235 18.1954C17.8235 19.3334 17.6633 20.2414 17.3545 20.9196C17.0456 21.5977 16.6337 22.1149 16.1418 22.4598C15.6499 22.8161 15.1008 23.046 14.4945 23.1609C13.8881 23.2759 13.2933 23.3333 12.7098 23.3333H6.90971V6.79312H13.2933C14.1169 6.79312 14.7805 6.93104 15.3067 7.2069C15.8329 7.48276 16.2448 7.83908 16.5537 8.28738C16.8625 8.73567 17.0685 9.22992 17.1829 9.77013C17.2973 10.3103 17.343 10.8506 17.3316 11.3678C17.3087 12.8736 16.9312 13.8966 16.199 14.4368C16.6795 14.6667 17.0685 15.0805 17.3773 15.6781C17.6748 16.2874 17.8235 17.1265 17.8235 18.1954ZM14.2542 11.4253C14.2542 10.9081 14.197 10.5173 14.0712 10.2644C13.9453 10.0115 13.7051 9.88508 13.339 9.88508H10.0329V13.1839H13.0416C13.5106 13.1839 13.8195 13.023 13.9911 12.7126C14.1627 12.3908 14.2542 11.9541 14.2542 11.4253ZM14.6889 18.2184C14.6889 17.7586 14.6546 17.3908 14.5745 17.1265C14.5059 16.8621 14.4029 16.6437 14.2885 16.4943C14.1741 16.3448 14.0483 16.2414 13.8996 16.1954C13.7623 16.1494 13.625 16.1264 13.4877 16.1264H10.0329V20.092H13.2246C13.7737 20.092 14.1627 19.9425 14.3686 19.6552C14.586 19.3564 14.6889 18.8851 14.6889 18.2184ZM30.3389 23.3333H19.8827V6.79312H30.1558V10H22.9944V13.046H29.5838V16.2529H22.9944V20.1035H30.3389V23.3333ZM42.4424 18.4483C42.4424 21.931 40.5777 23.6782 36.8482 23.6782C35.0407 23.6782 33.6565 23.1609 32.7069 22.138C31.7574 21.1034 31.2884 19.5173 31.2884 17.3678H34.32C34.3429 17.8391 34.4001 18.2874 34.4801 18.6781C34.5602 19.0805 34.7089 19.4138 34.9149 19.7011C35.1208 19.9885 35.3839 20.2069 35.7157 20.3678C36.0474 20.5287 36.4707 20.6092 36.9855 20.6092C37.8321 20.6092 38.4384 20.4483 38.8159 20.1379C39.1934 19.8276 39.3879 19.2069 39.3879 18.3104C39.3879 17.8391 39.3078 17.4942 39.1591 17.2874C39.0104 17.0804 38.7701 16.9195 38.4498 16.7931C38.0837 16.6552 37.6376 16.5518 37.1228 16.4713C36.608 16.3908 36.0131 16.2644 35.3496 16.0805C34.8348 15.931 34.3543 15.7586 33.9196 15.5633C33.4849 15.3679 33.0959 15.1034 32.7641 14.7471C32.4324 14.3908 32.1807 13.9311 31.9977 13.3678C31.8146 12.8046 31.7231 12.0575 31.7231 11.1379C31.7231 10.4598 31.8032 9.87356 31.9748 9.37931C32.1349 8.88506 32.3637 8.45981 32.6383 8.11494C32.9129 7.77015 33.2332 7.49429 33.5878 7.2759C33.9539 7.05751 34.32 6.89653 34.6975 6.78162C35.075 6.66668 35.4525 6.58622 35.8301 6.55173C36.2076 6.51725 36.5622 6.49426 36.8711 6.49426C37.9465 6.49426 38.8273 6.66668 39.4909 7.00003C40.1658 7.33338 40.6806 7.7816 41.0581 8.31035C41.4357 8.85056 41.6873 9.45976 41.8132 10.1264C41.939 10.8046 42.0077 11.4713 42.0077 12.1264H39.0333C38.9875 11.8506 38.9532 11.5403 38.9189 11.2069C38.896 10.8736 38.8159 10.5747 38.7015 10.3334C38.5985 10.1149 38.4269 9.91958 38.1638 9.74715C37.9007 9.57472 37.4889 9.48274 36.9283 9.48274C36.4936 9.48274 36.1275 9.51724 35.8415 9.59769C35.5555 9.67815 35.3381 9.7931 35.178 9.94256C35.0178 10.0919 34.9034 10.2989 34.8462 10.5402C34.789 10.7816 34.7547 11.0804 34.7547 11.4138C34.7547 11.8161 34.8462 12.1034 35.0178 12.2759C35.1894 12.4483 35.5212 12.5977 36.0017 12.7242C36.505 12.8621 37.0084 12.977 37.5232 13.069C38.038 13.1609 38.5299 13.2759 39.0104 13.4023C39.4909 13.5287 39.937 13.7011 40.3489 13.9195C40.7607 14.1379 41.1268 14.4253 41.4357 14.8046C41.7445 15.1839 41.9962 15.6667 42.1678 16.2529C42.3623 16.8391 42.4424 17.5747 42.4424 18.4483ZM53.8023 9.98851H50.0385V23.3333H46.9154V9.98851H43.1517V6.79312H53.7909V9.98851H53.8023Z" fill="#F6F6F6"/>
<path d="M73.9826 17.253C73.9138 18.115 73.7653 18.9311 73.5364 19.7127C73.3074 20.4943 72.9761 21.1725 72.5409 21.7472C72.1064 22.3334 71.5344 22.7932 70.8366 23.138C70.1388 23.4828 69.2918 23.6552 68.2968 23.6552C67.1528 23.6552 66.1804 23.4598 65.3796 23.069C64.5788 22.6782 63.9382 22.1035 63.4348 21.3679C62.9429 20.6207 62.5768 19.7012 62.3594 18.6092C62.1306 17.5173 62.0162 16.2759 62.0162 14.8736C62.0162 13.5863 62.1421 12.4138 62.3823 11.3794C62.6226 10.3449 63.0001 9.45986 63.5149 8.72418C64.0297 8.00009 64.6818 7.43684 65.4597 7.04602C66.249 6.65523 67.1871 6.45984 68.2739 6.45984C69.3722 6.45984 70.2646 6.63225 70.9624 6.97709C71.6602 7.32188 72.2095 7.77018 72.6323 8.3219C73.0441 8.87363 73.3418 9.50581 73.5247 10.207C73.7083 10.9081 73.8341 11.6207 73.9138 12.3219H70.9624C70.8936 11.9541 70.8139 11.5978 70.7218 11.2644C70.642 10.9311 70.5045 10.6322 70.3333 10.3909C70.1615 10.1495 69.9215 9.95411 69.6238 9.80465C69.3261 9.65527 68.926 9.58627 68.4226 9.58627C67.8163 9.58627 67.3015 9.6897 66.8897 9.88511C66.4778 10.0805 66.1347 10.4023 65.883 10.8506C65.6313 11.2989 65.4482 11.8852 65.3338 12.6092C65.2194 13.3334 65.1737 14.2299 65.1737 15.2989C65.1737 16.3794 65.2538 17.2414 65.4025 17.9196C65.5512 18.5863 65.7686 19.115 66.0431 19.4828C66.3177 19.8622 66.6494 20.115 67.0498 20.2529C67.4502 20.3908 67.885 20.4598 68.3769 20.4598C68.88 20.4598 69.2691 20.3794 69.5668 20.2299C69.8638 20.0805 70.0927 19.8622 70.2646 19.5748C70.4358 19.2874 70.5733 18.9541 70.6647 18.5633C70.7678 18.1725 70.8593 17.7357 70.9624 17.2414H73.9826V17.253ZM86.5095 23.3334H83.3979V16.1955H78.7071V23.3334H75.5954V6.79317H78.7071V12.9656H83.3979V6.79317H86.5095V23.3334ZM99.6311 23.3334H96.3703L95.5123 19.9196H91.3715L90.5245 23.3334H87.3785L91.8857 6.79317H94.9747L99.6311 23.3334ZM94.7347 16.8392L93.4532 11.5173L92.1381 16.8392H94.7347ZM108.771 23.3334L104.013 13.2644V23.3334H100.901V6.79317H103.955L108.749 16.7932V6.79317H111.838V23.3334H108.771ZM125.874 23.3334H123.346V21.6553C123.163 22.0575 122.934 22.3794 122.66 22.6322C122.385 22.8851 122.088 23.0805 121.767 23.2299C121.447 23.3794 121.104 23.4714 120.761 23.5288C120.418 23.5862 120.074 23.6093 119.743 23.6093C118.599 23.6093 117.637 23.3908 116.871 22.9426C116.104 22.4943 115.487 21.8851 115.018 21.1035C114.548 20.3219 114.217 19.3909 114.023 18.3219C113.828 17.2529 113.725 16.1035 113.725 14.8736C113.725 9.26445 115.818 6.45984 120.017 6.45984C121.058 6.45984 121.927 6.63225 122.648 6.96556C123.369 7.2989 123.952 7.75865 124.398 8.31038C124.844 8.87363 125.165 9.51734 125.359 10.23C125.554 10.9541 125.657 11.7012 125.657 12.4599H122.477C122.477 12.1265 122.454 11.7817 122.408 11.4253C122.362 11.069 122.259 10.7587 122.099 10.4828C121.939 10.2069 121.687 9.97709 121.355 9.80465C121.024 9.63222 120.578 9.54031 120.006 9.54031C119.434 9.54031 118.942 9.63222 118.552 9.82763C118.152 10.023 117.832 10.3219 117.58 10.7357C117.329 11.1495 117.146 11.6897 117.031 12.3449C116.917 13.0001 116.86 13.7932 116.86 14.7127C116.86 15.7242 116.905 16.5977 117.008 17.3219C117.111 18.0461 117.283 18.6322 117.534 19.069C117.786 19.5173 118.118 19.8392 118.53 20.046C118.942 20.2529 119.468 20.3564 120.108 20.3564C120.475 20.3564 120.818 20.2989 121.15 20.184C121.481 20.069 121.767 19.8851 122.008 19.6438C122.248 19.4023 122.442 19.0805 122.58 18.7012C122.717 18.3219 122.774 17.8621 122.763 17.3219H119.834V14.2759H125.897V23.3334H125.874ZM138.264 23.3334H127.83V6.79317H138.081V10.0001H130.942V13.046H137.509V16.2529H130.942V20.1035H138.264V23.3334Z" fill="#1F1E1E"/>
</g>
</g>
<defs>
<clipPath id="clip0_192_6620">
<rect width="143" height="30" fill="white"/>
</clipPath>
</defs>
</svg>
