<svg width="138" height="41" viewBox="0 0 138 41" fill="none" xmlns="http://www.w3.org/2000/svg">
<g clip-path="url(#clip0_192_6667)">
<path d="M16.515 18.2428C17.2841 18.2428 18.1553 18.0323 18.8319 17.6166C19.4111 17.201 19.7956 16.6748 19.7956 15.7383C19.7956 14.9017 19.2164 14.0651 18.35 13.8599C17.3814 13.5442 16.8022 13.5442 16.1256 13.5442C15.4491 13.5442 14.68 13.6494 14.68 13.6494V18.348C14.68 18.2428 15.7411 18.2428 16.515 18.2428Z" fill="#F6F6F6"/>
<path d="M19.6983 21.1682C19.3138 20.9577 18.35 20.642 17.2841 20.5421C16.223 20.4368 14.7774 20.5421 14.7774 20.5421V25.7615C14.7774 25.7615 16.223 25.7615 17.2841 25.7615C18.2527 25.6563 19.3138 25.4458 19.7956 25.1301C20.2775 24.8197 20.9541 24.4041 20.9541 23.1465C20.8616 21.8943 20.0877 21.4786 19.6983 21.1682Z" fill="#F6F6F6"/>
<path d="M32.8353 2.58425C22.1125 -0.862069 10.718 -0.862069 0 2.58425V22.4203C0 30.2495 6.27892 37.3474 16.4177 40.9989C26.5564 37.3474 32.8353 30.1443 32.8353 22.4203V2.58425ZM23.4656 27.1137C22.1125 28.1607 20.6669 28.2659 20.0877 28.3712C19.7956 28.3712 19.2164 28.4711 18.6372 28.4711V32.4384H16.4177V28.5764C16.0331 28.5764 15.3566 28.5764 14.68 28.5764V32.4384H12.4556V28.5764C10.2361 28.5764 8.11392 28.5764 8.11392 28.5764L8.59579 25.6562C8.59579 25.6562 9.46219 25.6562 9.94893 25.6562C10.4308 25.6562 10.6206 25.6562 10.8153 25.4457C11.01 25.2353 11.01 24.9248 11.01 24.7144C11.01 24.5039 11.01 15.3225 11.01 14.6964C11.01 14.065 11.01 13.8598 10.718 13.5441C10.4308 13.2337 9.85158 13.2337 9.46219 13.2337C9.07766 13.2337 8.11392 13.2337 8.11392 13.2337V10.7292C8.11392 10.7292 10.2361 10.7292 12.4556 10.7292V6.86716L14.68 6.8619V10.7292C15.2592 10.7292 15.8385 10.7292 16.4177 10.7292V6.8619H18.6372V10.8291C20.2775 10.9344 21.5333 11.25 22.5992 12.1866C23.9475 13.3389 23.9475 15.2173 23.855 15.7382C23.855 16.1538 23.6603 17.0956 23.2758 17.6165C22.8864 18.2427 22.02 18.7636 22.02 18.7636C22.02 18.7636 23.0811 18.974 23.855 19.6001C24.6241 20.2263 25.2033 21.2681 25.1059 22.9412C25.1059 24.6091 24.8188 26.1771 23.4656 27.1137Z" fill="#F6F6F6"/>
<path d="M15.5464 0.0798554C17.1916 0.290318 32.6407 3.21049 32.6407 24.1936C32.738 23.6727 32.738 23.0466 32.738 22.5257V2.68959C27.233 0.811212 21.3435 -0.0253758 15.5464 0.0798554Z" fill="#F6F6F6"/>
<path d="M43.5533 16.1539C44.2299 16.1539 44.8091 16.2592 45.291 16.5749C45.7728 16.8853 46.1622 17.201 46.5468 17.6166C46.8388 18.0323 47.126 18.5585 47.3207 19.1846C47.5105 19.8107 47.5105 20.4368 47.5105 21.1682C47.5105 22.21 47.3207 23.2518 46.9313 24.1936C46.5468 25.1354 46.0649 25.9667 45.4857 26.6981C44.8091 27.4295 44.1325 27.9503 43.2613 28.3713C42.3949 28.7869 41.5236 28.9974 40.4625 28.9974C40.3652 28.9974 40.078 28.9974 39.786 28.9974C39.4988 28.9974 39.1094 28.9974 38.7249 28.8922C38.3404 28.7869 37.8536 28.7869 37.3717 28.5765C36.8899 28.4712 36.5054 28.266 36.0186 28.0556L39.6886 11.2502L42.9741 10.7293L41.621 16.6748C41.913 16.5749 42.2002 16.4696 42.4922 16.3644C42.9741 16.2592 43.2613 16.1539 43.5533 16.1539ZM40.8471 26.072C41.3338 26.072 41.8157 25.9667 42.2975 25.6563C42.7794 25.3406 43.1688 25.0302 43.456 24.6093C43.748 24.1936 44.0352 23.6727 44.2299 23.1518C44.4246 22.6256 44.5171 21.9995 44.5171 21.3734C44.5171 20.642 44.4246 20.0159 44.1325 19.6003C43.9378 19.1846 43.456 18.9741 42.8768 18.9741C42.6821 18.9741 42.3949 18.9741 42.1028 19.0794C41.8157 19.1846 41.5236 19.2846 41.2364 19.6003L39.786 25.9667C39.8833 25.9667 39.9807 25.9667 39.9807 25.9667C40.078 25.9667 40.078 25.9667 40.1754 25.9667C40.2678 25.9667 40.3652 25.9667 40.4625 25.9667C40.5599 25.9667 40.6572 26.072 40.8471 26.072Z" fill="#F6F6F6"/>
<path d="M51.1805 28.5765H47.9972L50.6986 16.3644H53.8868L51.1805 28.5765ZM52.7283 14.9017C52.2465 14.9017 51.8571 14.7964 51.5699 14.486C51.1805 14.1703 50.9907 13.7547 50.9907 13.1285C50.9907 12.8128 51.088 12.5024 51.1805 12.1867C51.2778 11.8763 51.4725 11.6658 51.6672 11.4554C51.8571 11.2501 52.0518 11.0397 52.3389 10.9345C52.631 10.8292 52.923 10.7293 53.2102 10.7293C53.6921 10.7293 54.0815 10.8292 54.3686 11.1449C54.7532 11.4554 54.9478 11.8763 54.9478 12.5024C54.9478 12.8128 54.8505 13.1285 54.7532 13.439C54.6607 13.7547 54.466 13.9651 54.2713 14.1703C54.0815 14.3808 53.8868 14.5912 53.5947 14.6912C53.3075 14.9017 53.1128 14.9017 52.7283 14.9017Z" fill="#F6F6F6"/>
<path d="M56.9775 13.439L60.2582 12.9181L59.4891 16.4696H63.0618L62.3852 19.2898L58.9099 19.2846L57.9413 23.5675C57.8439 23.8779 57.8439 24.2988 57.7466 24.6093C57.6541 24.9249 57.7466 25.2354 57.8439 25.4458C57.9413 25.6563 58.136 25.8615 58.3307 25.9667C58.5205 26.072 58.9099 26.1772 59.2944 26.1772C59.6789 26.1772 59.971 26.1772 60.2582 26.072C60.5502 25.9667 60.9347 25.8615 61.2268 25.7615L61.4166 28.3713C61.0321 28.5765 60.5502 28.6817 60.0683 28.7869C59.5865 28.8922 59.0024 28.9974 58.3307 28.9974C57.3621 28.9974 56.5882 28.7869 56.0089 28.4712C55.4297 28.1608 55.0452 27.7451 54.8505 27.219C54.6607 26.6981 54.5633 26.072 54.5633 25.3406C54.5633 24.6093 54.6607 23.8779 54.8505 23.1518L56.9775 13.439Z" fill="#F6F6F6"/>
<path d="M67.1163 26.1772C67.8902 26.1772 68.3721 26.072 68.6593 25.8615C68.9513 25.6563 69.0486 25.4458 69.0486 25.1354C69.0486 24.9249 69.0486 24.8197 68.9513 24.7145C68.854 24.6093 68.854 24.5093 68.6593 24.4041C68.5668 24.2988 68.3721 24.1936 68.1774 24.0884C67.9876 23.9831 67.6955 23.8832 67.4083 23.6727C67.0189 23.4622 66.7318 23.357 66.4397 23.1518C66.1526 22.9413 65.8605 22.7309 65.5733 22.4204C65.3786 22.1047 65.1839 21.7943 64.9893 21.4786C64.8968 21.1682 64.7994 20.7473 64.7994 20.2264C64.7994 18.9741 65.1839 18.0376 66.0552 17.3062C66.9216 16.5748 68.1774 16.2592 69.7252 16.2592C70.4943 16.2592 71.1708 16.3644 71.75 16.5748C72.3293 16.7801 72.8111 16.9905 73.2005 17.201L72.1394 19.8107C71.8474 19.6002 71.4629 19.495 70.981 19.2898C70.4943 19.1846 70.0124 19.0794 69.6279 19.0794C69.4332 19.0794 69.2385 19.0794 69.0486 19.0794C68.854 19.0794 68.6593 19.1846 68.4694 19.1846C68.2747 19.2898 68.1774 19.3898 68.08 19.495C67.9827 19.6002 67.8902 19.8107 67.8902 20.0159C67.8902 20.3316 67.9827 20.5421 68.1774 20.7473C68.3721 20.8525 68.7566 21.063 69.1411 21.2734C69.7252 21.5839 70.2071 21.7943 70.4943 22.1048C70.8836 22.3152 71.1708 22.6256 71.3655 22.9413C71.5602 23.2518 71.75 23.5675 71.8474 23.8832C71.9447 24.1936 72.0421 24.6093 72.0421 25.1354C72.0421 25.6563 71.9447 26.072 71.75 26.5929C71.5602 27.119 71.2682 27.5347 70.8836 27.8451C70.4943 28.266 69.915 28.4765 69.3358 28.7869C68.6593 28.9974 67.8902 29.1026 67.0189 29.1026C66.4397 29.1026 65.9579 29.1026 65.476 28.9974C64.9893 28.8922 64.6047 28.7869 64.3176 28.6817C63.9282 28.5765 63.641 28.4712 63.4463 28.3713C63.2516 28.266 63.0618 28.1608 62.8671 28.0556L63.9282 25.4458C64.2202 25.5511 64.5074 25.7615 65.0866 26.072C65.7632 26.072 66.4397 26.1772 67.1163 26.1772Z" fill="#F6F6F6"/>
<path d="M81.699 16.9905C81.9861 16.8853 82.1808 16.7801 82.4729 16.6748C82.7601 16.5748 83.0521 16.4696 83.4366 16.3644C83.8211 16.2592 84.2105 16.2592 84.5951 16.1539C85.0769 16.0487 85.5637 16.0487 86.1429 16.0487C86.8146 16.0487 87.3987 16.1539 87.8805 16.3644C88.3624 16.5748 88.7469 16.7801 89.1363 17.201C89.6182 16.8853 90.1974 16.5748 90.6793 16.3644C91.1612 16.1539 91.8377 16.0487 92.5143 16.0487C93.1908 16.0487 93.7701 16.1539 94.2519 16.3644C94.7338 16.5748 95.1232 16.8853 95.4104 17.201C95.7024 17.5114 95.9896 18.0323 96.0869 18.4532C96.1843 18.9741 96.2816 19.495 96.2816 20.1211C96.2816 20.4368 96.2816 20.642 96.1843 20.9577C96.1843 21.2682 96.0869 21.5839 95.9896 21.8943L94.544 28.4712H91.3558L92.8063 21.9995C92.8063 21.7943 92.8988 21.5839 92.8988 21.2682C92.9962 20.9577 92.9962 20.7473 92.9962 20.4368C92.9962 20.0159 92.8988 19.6002 92.709 19.2898C92.5143 18.9741 92.1298 18.7637 91.6479 18.7637C91.3558 18.7637 91.0638 18.8689 90.7766 18.9741C90.4846 19.0794 90.2948 19.1846 90.0027 19.2898C90.0027 19.3898 90.0027 19.495 90.0027 19.6002C90.0027 19.7055 90.0027 19.8107 90.0027 19.9159C90.0027 20.2264 90.0027 20.4368 89.9054 20.7473C89.8129 21.063 89.8129 21.3734 89.7155 21.6891L88.2651 28.266H85.0769L86.5274 21.7943C86.5274 21.5839 86.6248 21.3734 86.6248 21.063C86.7221 20.7473 86.7221 20.5421 86.7221 20.2264C86.7221 19.8107 86.6248 19.3898 86.4301 19.0794C86.2354 18.7637 85.8508 18.5585 85.369 18.5585C85.1743 18.5585 84.9844 18.5585 84.7897 18.5585C84.5951 18.5585 84.4004 18.6637 84.2105 18.6637L82.1808 28.0556H78.9927L81.699 16.9905Z" fill="#F6F6F6"/>
<path d="M97.4401 23.8779C97.4401 22.9413 97.6348 21.8943 97.9219 21.063C98.214 20.1211 98.6959 19.2846 99.2751 18.5585C99.8543 17.8271 100.531 17.3062 101.397 16.7801C102.269 16.3644 103.14 16.1539 104.201 16.1539C104.683 16.1539 105.165 16.2592 105.554 16.3644C105.939 16.4696 106.323 16.78 106.712 16.9905C107 17.3062 107.292 17.6166 107.481 18.0323C107.676 18.4532 107.774 18.9741 107.774 19.495C107.774 20.3316 107.579 21.063 107.194 21.6891C106.805 22.3152 106.323 22.7309 105.744 23.1518C105.067 23.5675 104.391 23.7779 103.524 23.9831C102.653 24.1936 101.689 24.1936 100.721 24.1936C100.818 24.8197 101.013 25.3406 101.397 25.5511C101.689 25.8668 102.269 25.9667 103.042 25.9667C103.524 25.9667 104.006 25.9667 104.391 25.8668C104.877 25.7615 105.262 25.6563 105.744 25.4458L105.939 28.1608C105.554 28.3713 105.067 28.4765 104.391 28.5765C103.811 28.6817 103.14 28.7869 102.366 28.7869C101.495 28.7869 100.726 28.6817 100.141 28.3713C99.5622 28.0556 99.0804 27.7451 98.6959 27.2242C98.3065 26.8033 98.0193 26.1772 97.8246 25.5511C97.5374 25.2354 97.4401 24.504 97.4401 23.8779ZM103.719 18.8689C102.945 18.8689 102.366 19.1846 101.787 19.7055C101.207 20.2264 100.915 21.063 100.726 21.8943C101.592 21.8943 102.366 21.7943 102.848 21.6891C103.427 21.5839 103.811 21.3734 104.104 21.1682C104.391 20.9577 104.585 20.7473 104.683 20.5368C104.78 20.3316 104.877 20.1211 104.877 19.9107C104.877 19.1846 104.488 18.8689 103.719 18.8689Z" fill="#F6F6F6"/>
<path d="M112.31 28.8922C111.633 28.8922 110.957 28.7869 110.475 28.4712C109.993 28.1608 109.511 27.8451 109.219 27.4294C108.932 27.0138 108.64 26.4876 108.543 25.8615C108.353 25.2354 108.353 24.6093 108.353 23.8779C108.353 22.8361 108.543 21.7943 108.835 20.9577C109.219 20.0159 109.706 19.1846 110.285 18.5585C110.864 17.8271 111.633 17.3009 112.505 16.8853C113.371 16.4696 114.242 16.2592 115.303 16.2592C115.595 16.2592 115.785 16.2592 115.98 16.2592C116.175 16.2592 116.462 16.3644 116.656 16.3644L117.815 11.1449L121.1 10.624L118.297 23.357C118.107 24.1936 118.01 25.1301 118.107 25.9667C118.199 26.8033 118.394 27.6399 118.589 28.3713L115.785 28.7869C115.693 28.5765 115.595 28.4712 115.595 28.266C115.498 28.0556 115.498 27.9503 115.401 27.6399C115.016 27.9503 114.529 28.266 114.048 28.4712C113.468 28.7869 112.986 28.8922 112.31 28.8922ZM116.077 19.1846C115.98 19.1846 115.883 19.1846 115.883 19.1846C115.785 19.1846 115.785 19.1846 115.693 19.1846C115.595 19.1846 115.498 19.1846 115.401 19.1846C115.303 19.1846 115.206 19.1846 115.016 19.1846C114.534 19.1846 114.048 19.2846 113.663 19.6002C113.279 19.8107 112.889 20.2264 112.602 20.642C112.31 21.063 112.023 21.5839 111.925 22.1047C111.731 22.6256 111.633 23.2518 111.633 23.7779C111.633 24.504 111.731 25.1354 112.023 25.5511C112.213 25.9667 112.699 26.1772 113.279 26.1772C113.566 26.1772 113.858 26.072 114.145 25.9667C114.437 25.8615 114.724 25.5511 115.016 25.2354C115.016 24.8197 115.114 24.4041 115.114 23.9831C115.211 23.5675 115.211 23.1518 115.303 22.8361L116.077 19.1846Z" fill="#F6F6F6"/>
<path d="M123.32 28.5765H120.132L122.838 16.3644H126.026L123.32 28.5765ZM124.868 14.9017C124.381 14.9017 123.996 14.7964 123.704 14.486C123.32 14.1703 123.125 13.7547 123.125 13.1285C123.125 12.8128 123.223 12.5024 123.32 12.1867C123.417 11.8763 123.612 11.6658 123.802 11.4554C123.996 11.2501 124.191 11.0397 124.478 10.9345C124.77 10.8292 125.058 10.7293 125.35 10.7293C125.831 10.7293 126.216 10.8292 126.508 11.1449C126.893 11.4554 127.087 11.8763 127.087 12.5024C127.087 12.8128 126.99 13.1285 126.893 13.439C126.795 13.7547 126.605 13.9651 126.411 14.1703C126.216 14.3808 126.026 14.5912 125.734 14.6912C125.447 14.9017 125.155 14.9017 124.868 14.9017Z" fill="#F6F6F6"/>
<path d="M136.549 23.357C136.355 24.1936 136.262 25.1354 136.355 25.9667C136.452 26.8033 136.647 27.6399 136.842 28.3713L134.038 28.7869C133.941 28.5765 133.848 28.4712 133.848 28.266C133.751 28.0556 133.751 27.9503 133.653 27.6399C133.269 27.9503 132.782 28.266 132.3 28.4712C131.818 28.6817 131.239 28.7869 130.66 28.7869C129.983 28.7869 129.307 28.6817 128.825 28.3713C128.343 28.0556 127.856 27.7399 127.569 27.3242C127.277 26.9086 126.99 26.3877 126.893 25.7615C126.795 25.1301 126.698 24.504 126.698 23.7779C126.698 22.7309 126.893 21.6891 127.185 20.7473C127.569 19.8107 128.051 18.9741 128.63 18.2428C129.209 17.5114 129.983 16.9905 130.85 16.5748C131.721 16.1539 132.592 15.9487 133.556 15.9487C133.653 15.9487 133.941 15.9487 134.233 15.9487C134.52 15.9487 134.909 15.9487 135.294 16.0487C135.678 16.1539 136.165 16.1539 136.647 16.3644C137.129 16.4696 137.513 16.6748 138 16.8853L136.549 23.357ZM134.33 19.0794C134.135 19.0794 133.945 18.9741 133.848 18.9741C133.653 18.9741 133.556 18.9741 133.269 18.9741C132.782 18.9741 132.3 19.0794 131.916 19.3898C131.526 19.7055 131.142 20.0159 130.855 20.4368C130.563 20.8525 130.275 21.3734 130.081 21.8995C129.886 22.4204 129.789 23.0466 129.789 23.6727C129.789 24.4041 129.886 25.0302 130.178 25.4458C130.465 25.8615 130.855 26.072 131.434 26.072C131.721 26.072 132.013 25.9667 132.3 25.8615C132.592 25.7615 132.879 25.4458 133.172 25.1354C133.172 24.7145 133.269 24.2988 133.269 23.8832C133.366 23.4622 133.366 23.0466 133.459 22.7309L134.33 19.0794Z" fill="#F6F6F6"/>
<path d="M75.6147 28.5765C75.1329 28.5765 74.7435 28.4712 74.4563 28.1608C74.0718 27.8451 73.8771 27.4294 73.8771 26.8033C73.8771 26.4876 73.9744 26.1772 74.0718 25.8615C74.1643 25.5511 74.359 25.3406 74.5537 25.1354C74.7435 24.9249 74.9382 24.7145 75.2302 24.6093C75.5174 24.504 75.8094 24.404 76.0966 24.404C76.5785 24.404 76.9679 24.504 77.255 24.8197C77.6444 25.1301 77.8343 25.5511 77.8343 26.1772C77.8343 26.4876 77.7369 26.8033 77.6444 27.1138C77.5471 27.4294 77.3524 27.6399 77.1577 27.8451C76.9679 28.0556 76.7732 28.266 76.486 28.3713C76.194 28.5765 75.9068 28.5765 75.6147 28.5765Z" fill="#F6F6F6"/>
</g>
<defs>
<clipPath id="clip0_192_6667">
<rect width="138" height="41" fill="white"/>
</clipPath>
</defs>
</svg>
