<svg width="150" height="39" viewBox="0 0 150 39" fill="none" xmlns="http://www.w3.org/2000/svg">
<g clip-path="url(#clip0_192_6639)">
<path d="M20.5815 19.5001L10.7678 25.6797V38.0389L20.5815 31.8593V19.5001Z" fill="#F6F6F6"/>
<path d="M10.7676 13.3205L0.953827 19.5V7.14088L10.7676 0.961304V13.3205Z" fill="#F6F6F6"/>
<path d="M20.5812 19.4999L10.7676 25.6795L0.953827 19.4999L10.7676 13.3203L20.5812 19.4999Z" fill="#F6F6F6"/>
<path d="M0.954025 19.4999L10.7678 13.3203M10.768 25.6798L20.5817 19.5002" stroke="#F6F6F6" stroke-width="0.44926" stroke-miterlimit="10"/>
<path d="M0.953827 31.8591L10.7676 25.6796V38.0387L0.953827 31.8591Z" fill="#F6F6F6"/>
<path d="M10.7677 38.0388V26.4486C10.7677 25.968 10.5224 25.5285 10.1271 25.2814L2.23523 20.3102C1.44469 19.8022 0.954002 18.9233 0.954002 17.9757V7.14088L10.7677 0.961304V12.5515C10.7677 13.0321 11.0131 13.4715 11.4084 13.7187L19.3002 18.6898C20.0908 19.198 20.5814 20.0768 20.5814 21.0243V31.8592L10.7677 38.0388ZM10.7677 38.0388L0.953995 31.8592L10.1544 26.0229" stroke="#F6F6F6" stroke-width="1.4601" stroke-miterlimit="10" stroke-linecap="round" stroke-linejoin="round"/>
<path d="M40.4815 19.0881C40.6314 18.9508 40.7541 18.7998 40.8769 18.6349C41.0131 18.429 41.1222 18.1955 41.1767 17.9621C41.2448 17.7012 41.2721 17.4265 41.2721 17.1519C41.2721 16.7124 41.204 16.3005 41.0541 15.9297C40.9041 15.5589 40.6997 15.2431 40.4271 14.9685C40.0727 14.6114 39.6637 14.3505 39.1867 14.172C38.7232 13.9935 38.2326 13.9111 37.7147 13.9111H32.099C31.8946 13.9111 31.7446 14.0758 31.7446 14.2681V25.199C31.7446 25.4051 31.9081 25.5561 32.099 25.5561H37.919C38.4779 25.5561 39.0095 25.4599 39.4865 25.2678C39.9636 25.0755 40.3998 24.8008 40.7678 24.4575C41.1222 24.128 41.3948 23.7435 41.5856 23.304C41.7764 22.8646 41.8718 22.3702 41.8718 21.8484C41.8718 21.0794 41.6674 20.4064 41.2584 19.8297C41.0676 19.5413 40.795 19.2804 40.4815 19.0881ZM37.96 23.1804H34.3888V20.5575H38.0554C38.2461 20.5575 38.4233 20.5987 38.6005 20.6811C38.7777 20.7635 38.9414 20.8734 39.0503 20.997C39.2275 21.203 39.3093 21.4776 39.3093 21.8484C39.3093 22.0406 39.2821 22.2191 39.2275 22.3702C39.173 22.5213 39.0913 22.6448 39.0095 22.741C38.8731 22.8646 38.7096 22.9745 38.5188 23.0569C38.3416 23.1392 38.1644 23.1804 37.96 23.1804ZM38.4643 17.8797C38.3961 17.9621 38.3144 18.017 38.2053 18.072C38.1235 18.1131 38.0145 18.1406 37.9054 18.1406H34.3888V16.3005H37.6192C37.96 16.3005 38.2326 16.3966 38.437 16.5752C38.6005 16.7262 38.6823 16.946 38.6823 17.2343C38.6823 17.4952 38.6142 17.7149 38.4643 17.8797Z" fill="#F6F6F6"/>
<path d="M46.697 13.9111H44.7887C44.5844 13.9111 44.4344 14.0758 44.4344 14.2681V25.199C44.4344 25.4051 44.5979 25.5561 44.7887 25.5561H52.9805C53.185 25.5561 53.3349 25.3913 53.3349 25.199V23.4825C53.3349 23.2765 53.1713 23.1255 52.9805 23.1255H47.065V14.2819C47.065 14.0758 46.9014 13.9111 46.697 13.9111Z" fill="#F6F6F6"/>
<path d="M64.5523 15.3116C64.0208 14.776 63.3666 14.3503 62.6305 14.0482C61.8944 13.7461 61.0767 13.6088 60.1907 13.6088C59.2775 13.6088 58.4324 13.7735 57.6691 14.1032C56.9058 14.4327 56.2515 14.8997 55.7064 15.4764C55.1885 16.0119 54.7931 16.6574 54.5069 17.3577C54.2207 18.0718 54.0844 18.8408 54.0844 19.651C54.0844 20.42 54.2343 21.1753 54.5205 21.8894C54.8068 22.5898 55.202 23.2215 55.6928 23.7433C56.2243 24.32 56.8922 24.8007 57.6554 25.144C58.4188 25.501 59.2775 25.6796 60.1907 25.6796C61.1039 25.6796 61.9354 25.5148 62.685 25.1989C63.421 24.8831 64.0753 24.4299 64.6341 23.8668C65.1657 23.3314 65.5746 22.6859 65.8472 21.9718C66.1334 21.2577 66.2698 20.475 66.2698 19.6373C66.2698 18.7997 66.1198 18.0032 65.82 17.2753C65.5337 16.5338 65.1112 15.8747 64.5523 15.3116ZM63.6391 19.6235C63.6391 20.1317 63.5573 20.6123 63.3938 21.0243C63.2302 21.45 62.9985 21.8071 62.7259 22.1229C62.4124 22.4662 62.0308 22.7271 61.5946 22.9193C60.7223 23.3039 59.6455 23.2901 58.7868 22.9056C58.3642 22.7133 57.9826 22.4388 57.6827 22.0954C57.3965 21.7933 57.1648 21.4225 57.0012 20.9968C56.8377 20.5848 56.7423 20.118 56.7423 19.6098C56.7423 19.1017 56.824 18.6211 57.0012 18.2091C57.1784 17.7834 57.3965 17.4126 57.6827 17.1106C57.9963 16.7673 58.3779 16.5064 58.814 16.3141C59.2502 16.1218 59.7136 16.0257 60.2044 16.0257C60.6814 16.0257 61.1448 16.1218 61.581 16.3141C62.0171 16.5064 62.3988 16.7673 62.7123 17.0968C62.9985 17.3989 63.2302 17.7559 63.3938 18.1817C63.5573 18.6211 63.6391 19.1017 63.6391 19.6235Z" fill="#F6F6F6"/>
<path d="M71.3948 17.1656C71.7084 16.8498 72.0764 16.6026 72.4989 16.4241C73.4257 16.0395 74.5979 16.1082 75.4566 16.479C75.8246 16.6437 76.6152 17.2479 76.9559 17.5089C77.0514 17.5912 77.1876 17.5776 77.2694 17.4815L78.578 15.9983C78.6597 15.9022 78.6597 15.7511 78.5507 15.6687C78.1009 15.3117 76.9696 14.4328 76.3971 14.1857C75.6747 13.8698 74.816 13.7187 73.8482 13.7187C72.9623 13.7187 72.1309 13.8698 71.3948 14.1719C70.6588 14.4741 70.0046 14.8998 69.4593 15.4491C68.9277 15.9983 68.4916 16.6437 68.2053 17.3716C67.9055 18.0994 67.7556 18.8959 67.7556 19.7335C67.7556 20.5986 67.9055 21.3952 68.2053 22.1229C68.5052 22.8508 68.9414 23.51 69.5003 24.0592C70.0455 24.5948 70.6997 25.0205 71.4221 25.3364C72.1445 25.6385 72.9623 25.7895 73.8347 25.7895C74.7888 25.7895 75.6475 25.6385 76.3835 25.3364C76.9559 25.1029 78.1009 24.1828 78.5507 23.812C78.6597 23.7296 78.6597 23.5786 78.578 23.4825L77.2694 22.0132C77.1876 21.917 77.0514 21.9033 76.9559 21.9857C76.6152 22.2466 75.8246 22.8508 75.443 23.0156C74.5843 23.4001 73.4257 23.4687 72.4716 23.0568C72.0355 22.8645 71.6538 22.6036 71.3403 22.2741C71.0541 21.9857 70.8224 21.6286 70.6588 21.2029C70.4817 20.7772 70.3999 20.2966 70.3999 19.7473C70.3999 19.2392 70.4952 18.7448 70.6724 18.3053C70.8496 17.8522 71.095 17.4677 71.3948 17.1656Z" fill="#F6F6F6"/>
<path d="M91.2947 13.9111H88.7732C88.596 13.9111 88.4461 13.9935 88.3507 14.1307L85.5292 18.1269H83.8118V14.2681C83.8118 14.0621 83.6482 13.9111 83.4574 13.9111H81.5355C81.3311 13.9111 81.1811 14.0758 81.1811 14.2681V25.199C81.1811 25.4051 81.3447 25.5561 81.5355 25.5561H83.4574C83.6619 25.5561 83.8118 25.3913 83.8118 25.199V20.5713H85.5564L88.6505 25.3227C88.7459 25.4737 88.9094 25.5561 89.0866 25.5561H91.54C91.6764 25.5561 91.7582 25.4051 91.69 25.2815L87.8054 19.2666L91.4311 14.1582C91.5264 14.0758 91.4446 13.9111 91.2947 13.9111Z" fill="#F6F6F6"/>
<path d="M96.4196 17.1656C96.7332 16.8498 97.1013 16.6026 97.5232 16.4241C98.4503 16.0395 99.6223 16.1082 100.482 16.479C100.849 16.6437 101.64 17.2479 101.981 17.5089C102.076 17.5912 102.213 17.5776 102.294 17.4815L103.603 15.9983C103.685 15.9022 103.685 15.7511 103.575 15.6687C103.125 15.3117 101.994 14.4328 101.422 14.1857C100.699 13.8698 99.841 13.7187 98.8732 13.7187C97.9868 13.7187 97.1555 13.8698 96.4196 14.1719C95.6836 14.4741 95.0294 14.8998 94.4841 15.4491C93.9526 15.9983 93.5164 16.6437 93.2301 17.3716C92.9303 18.0994 92.7803 18.8959 92.7803 19.7335C92.7803 20.5986 92.9303 21.3952 93.2301 22.1229C93.53 22.8508 93.9662 23.51 94.5251 24.0592C95.0702 24.5948 95.7245 25.0205 96.4469 25.3364C97.1826 25.6385 97.9868 25.7895 98.8597 25.7895C99.8139 25.7895 100.672 25.6385 101.409 25.3364C101.981 25.1029 103.125 24.1828 103.575 23.812C103.685 23.7296 103.685 23.5786 103.603 23.4825L102.294 22.0132C102.213 21.917 102.076 21.9033 101.981 21.9857C101.64 22.2466 100.849 22.8508 100.468 23.0156C99.6087 23.4001 98.4503 23.4687 97.4961 23.0568C97.0607 22.8645 96.6786 22.6036 96.3651 22.2741C96.0789 21.9857 95.8472 21.6286 95.6836 21.2029C95.5064 20.7772 95.4246 20.2966 95.4246 19.7473C95.4246 19.2392 95.52 18.7448 95.6972 18.3053C95.8744 17.8522 96.1198 17.4677 96.4196 17.1656Z" fill="#F6F6F6"/>
<path d="M113.676 18.0169H108.66V14.1581C108.66 13.9521 108.496 13.7873 108.291 13.7873H106.384C106.179 13.7873 106.015 13.9521 106.015 14.1581V25.0891C106.015 25.295 106.179 25.4461 106.384 25.4461H108.291C108.496 25.4461 108.66 25.2814 108.66 25.0891V20.4613H113.676V25.0891C113.676 25.295 113.839 25.4461 114.044 25.4461H115.952C116.156 25.4461 116.32 25.2814 116.32 25.0891V14.1581C116.32 13.9521 116.156 13.7873 115.952 13.7873H114.044C113.839 13.7873 113.676 13.9521 113.676 14.1581V18.0169Z" fill="#F6F6F6"/>
<path d="M123.217 14.2266L118.337 25.3224C118.282 25.4323 118.365 25.5696 118.501 25.5696H120.709C120.914 25.5696 121.104 25.446 121.186 25.2538L121.936 23.5647H127.292L128.056 25.2674C128.138 25.4597 128.328 25.5833 128.533 25.5833H130.768C130.891 25.5833 130.972 25.446 130.932 25.3362L126.052 14.2404C125.97 14.0481 125.779 13.9245 125.575 13.9245H123.721C123.49 13.9108 123.299 14.0344 123.217 14.2266ZM126.257 21.1065H122.944L124.58 16.9182L126.257 21.1065Z" fill="#F6F6F6"/>
<path d="M133.303 25.5698H135.184C135.388 25.5698 135.552 25.4051 135.552 25.199V14.2819C135.552 14.0758 135.388 13.9111 135.184 13.9111H133.303C133.098 13.9111 132.935 14.0758 132.935 14.2819V25.2128C132.935 25.4188 133.098 25.5698 133.303 25.5698Z" fill="#F6F6F6"/>
<path d="M147.002 21.9857C147.206 21.8758 147.383 21.7523 147.56 21.6149C147.82 21.4089 148.064 21.1617 148.269 20.9008C148.828 20.173 149.114 19.2803 149.114 18.2779C149.114 17.6462 148.992 17.0694 148.759 16.5476C148.528 16.0395 148.214 15.5726 147.82 15.1744C147.397 14.7624 146.92 14.4466 146.375 14.2268C145.829 14.0071 145.257 13.8973 144.643 13.8973H139.301C139.095 13.8973 138.932 14.062 138.932 14.2681V25.1991C138.932 25.405 139.095 25.5698 139.301 25.5698H141.209C141.413 25.5698 141.577 25.405 141.577 25.1991V22.5899H144.371L145.979 25.3089C146.075 25.4737 146.238 25.5698 146.429 25.5698H148.936C149.032 25.5698 149.101 25.46 149.046 25.3776L147.002 21.9857ZM141.577 16.4103H144.603C144.888 16.4103 145.161 16.4652 145.421 16.5751C145.665 16.685 145.856 16.836 146.034 17.042C146.333 17.3716 146.483 17.7698 146.483 18.2917C146.483 18.5251 146.443 18.7723 146.361 18.992C146.279 19.2117 146.156 19.4177 145.979 19.61C145.843 19.7748 145.665 19.8983 145.448 19.9944C145.215 20.0906 144.971 20.1456 144.698 20.1456H141.577V16.4103Z" fill="#F6F6F6"/>
</g>
<defs>
<clipPath id="clip0_192_6639">
<rect width="150" height="39" fill="white"/>
</clipPath>
</defs>
</svg>
