<svg width="127" height="26" viewBox="0 0 127 26" fill="none" xmlns="http://www.w3.org/2000/svg">
<g clip-path="url(#clip0_192_6633)">
<path d="M7.48708 18.9383C7.80376 18.2498 7.90549 17.3047 7.79227 16.1028C7.79056 16.0831 7.79299 16.0633 7.79939 16.0446C7.8058 16.0259 7.81604 16.0087 7.82947 15.9942C7.8429 15.9796 7.85922 15.968 7.8774 15.9601C7.89557 15.9522 7.9152 15.9482 7.93503 15.9483L11.5654 15.9507C11.6507 15.9507 11.6966 15.9924 11.7032 16.0758C11.9001 18.5851 11.4521 21.5996 8.63894 22.4139C7.01206 22.8849 4.82894 22.8652 3.30051 22.3722C0.622681 21.5113 0.12551 18.8303 0.0959756 16.3113C0.0680815 14.0841 0.0647999 11.8561 0.0861306 9.62732C0.113204 6.59808 0.863882 3.71845 4.38592 3.29411C9.21979 2.71525 11.8558 4.36845 11.6072 9.42864C11.6059 9.45511 11.5945 9.48007 11.5752 9.49834C11.556 9.51661 11.5304 9.52679 11.5038 9.52676L7.87103 9.52185C7.84647 9.52194 7.82215 9.51693 7.79963 9.50715C7.7771 9.49737 7.75687 9.48303 7.7402 9.46503C7.72354 9.44704 7.71081 9.4258 7.70283 9.40264C7.69484 9.37949 7.69178 9.35493 7.69382 9.33053C7.75782 8.6143 7.69547 7.89726 7.50677 7.1794C7.05144 5.44279 4.80925 5.72732 4.31454 7.23581C4.09959 7.89644 3.99212 8.63229 3.99212 9.44336C3.99376 11.6705 4.00278 13.8985 4.01919 16.1273C4.02576 16.9547 4.13241 17.7691 4.33915 18.5703C4.73787 20.1083 6.80286 20.4394 7.48708 18.9383Z" fill="#F6F6F6"/>
<path d="M61.8559 19.5294L61.8583 15.4062C61.8583 15.3885 61.8548 15.371 61.848 15.3546C61.8412 15.3382 61.8313 15.3234 61.8187 15.3108C61.8061 15.2983 61.7912 15.2884 61.7748 15.2816C61.7583 15.2748 61.7407 15.2713 61.723 15.2713L60.1404 15.2615C60.078 15.2599 60.0469 15.228 60.0469 15.1658L60.0493 12.5634C60.0493 12.4751 60.0944 12.4309 60.1847 12.4309L65.6511 12.4285C65.6883 12.4285 65.724 12.4432 65.7503 12.4694C65.7766 12.4957 65.7914 12.5312 65.7914 12.5683L65.7865 21.9455C65.7857 21.9751 65.7751 22.0036 65.7565 22.0267C65.7378 22.0497 65.712 22.066 65.6831 22.073C64.0915 22.4573 62.4613 22.6944 60.7926 22.7843C56.3599 23.0223 54.2703 21.6266 53.9577 17.106C53.897 16.2475 53.8642 14.143 53.8593 10.7925C53.8544 7.42472 54.4008 4.10358 58.3314 3.38981C62.7936 2.58038 66.1753 4.29 65.7594 9.29623C65.7575 9.32225 65.7458 9.3466 65.7266 9.36436C65.7074 9.38212 65.6822 9.39195 65.656 9.39189L62.0306 9.38453C62.0089 9.38459 61.9873 9.38017 61.9674 9.37152C61.9474 9.36288 61.9294 9.3502 61.9146 9.3343C61.8998 9.3184 61.8885 9.29961 61.8814 9.27913C61.8742 9.25865 61.8714 9.23691 61.8731 9.21528C61.9715 7.6749 61.6417 5.78623 59.562 6.10264C57.94 6.35038 57.8416 8.09679 57.817 9.38208C57.7653 12.2642 57.5832 15.3621 57.9794 18.2147C58.2649 20.2579 60.2142 20.1279 61.7451 19.6791C61.8189 19.6562 61.8559 19.6063 61.8559 19.5294Z" fill="#F6F6F6"/>
<path d="M30.5071 18.4967L29.781 22.3452C29.7747 22.377 29.7575 22.4057 29.7324 22.4262C29.7073 22.4468 29.6757 22.4581 29.6432 22.458L26.1458 22.4605C26.1247 22.4603 26.104 22.4554 26.0851 22.4461C26.0662 22.4369 26.0497 22.4235 26.0367 22.407C26.0237 22.3906 26.0146 22.3714 26.01 22.3509C26.0055 22.3304 26.0056 22.3092 26.0104 22.2888L30.2806 3.54669C30.2878 3.51619 30.305 3.48897 30.3296 3.4694C30.3541 3.44983 30.3846 3.43904 30.416 3.43877L34.7946 3.43631C34.8264 3.43604 34.8574 3.44657 34.8825 3.46618C34.9075 3.4858 34.9251 3.51333 34.9324 3.54424L39.1928 22.2937C39.1976 22.3143 39.1977 22.3357 39.193 22.3564C39.1883 22.377 39.179 22.3964 39.1657 22.4129C39.1525 22.4294 39.1356 22.4428 39.1164 22.4518C39.0972 22.4609 39.0762 22.4656 39.055 22.4654L35.5551 22.4556C35.5222 22.4555 35.4904 22.4439 35.4652 22.4228C35.44 22.4018 35.423 22.3725 35.4172 22.3403L34.7207 18.5016C34.7149 18.4693 34.698 18.4401 34.6728 18.419C34.6476 18.398 34.6158 18.3864 34.5829 18.3863L30.6449 18.3839C30.6124 18.3838 30.5808 18.3951 30.5557 18.4156C30.5305 18.4362 30.5133 18.4649 30.5071 18.4967ZM32.6951 7.29707C32.6607 7.10411 32.6254 7.10411 32.5893 7.29707L31.0682 15.4552C31.066 15.4651 31.0662 15.4754 31.0686 15.4853C31.0711 15.4952 31.0757 15.5045 31.0823 15.5124C31.0889 15.5204 31.0973 15.5269 31.1067 15.5314C31.1162 15.5359 31.1266 15.5384 31.1371 15.5386H34.0316C34.1349 15.5386 34.1776 15.4879 34.1595 15.3865L32.6951 7.29707Z" fill="#F6F6F6"/>
<path d="M43.9922 11.8446L43.9995 22.2667C43.9995 22.3975 43.9339 22.4629 43.8027 22.4629L40.3028 22.4703C40.2629 22.4703 40.2248 22.4545 40.1966 22.4264C40.1684 22.3984 40.1526 22.3603 40.1526 22.3206L40.1723 3.56386C40.1723 3.53068 40.1858 3.49886 40.2098 3.4754C40.2338 3.45194 40.2664 3.43876 40.3003 3.43876L43.8642 3.43631C43.9006 3.43628 43.9362 3.44724 43.9665 3.46778C43.9967 3.48833 44.0203 3.51752 44.034 3.55159L48.3879 14.2508C48.4618 14.4356 48.4987 14.4283 48.4987 14.2288L48.5012 3.61291C48.5012 3.49681 48.5594 3.43876 48.6759 3.43876L52.2004 3.43631C52.2389 3.43631 52.2758 3.4513 52.3031 3.47798C52.3303 3.50466 52.3456 3.54084 52.3456 3.57857L52.3481 22.2765C52.3481 22.3262 52.3284 22.3738 52.2934 22.4092C52.2584 22.4445 52.2109 22.4647 52.161 22.4654L48.6144 22.4727C48.541 22.4728 48.4691 22.4506 48.4081 22.409C48.3471 22.3675 48.2998 22.3085 48.2723 22.2397L44.0931 11.825C44.0242 11.6533 43.9905 11.6598 43.9922 11.8446Z" fill="#F6F6F6"/>
<path d="M71.4178 14.2974L71.4252 19.4999C71.4252 19.5337 71.4387 19.5662 71.4627 19.5901C71.4867 19.614 71.5192 19.6274 71.5532 19.6274L77.0319 19.6201C77.0658 19.6201 77.0984 19.6335 77.1224 19.6574C77.1464 19.6814 77.1599 19.7138 77.1599 19.7476V22.3305C77.1599 22.3643 77.1464 22.3967 77.1224 22.4207C77.0984 22.4446 77.0658 22.458 77.0319 22.458L67.6299 22.4605C67.596 22.4605 67.5634 22.447 67.5394 22.4231C67.5154 22.3992 67.502 22.3667 67.502 22.3329L67.4921 3.56386C67.4921 3.53003 67.5056 3.49759 67.5296 3.47367C67.5536 3.44975 67.5862 3.43631 67.6201 3.43631H76.9285C76.9624 3.43631 76.995 3.44975 77.019 3.47367C77.043 3.49759 77.0565 3.53003 77.0565 3.56386L77.054 6.14423C77.054 6.17806 77.0405 6.2105 77.0165 6.23442C76.9925 6.25834 76.96 6.27178 76.926 6.27178L71.5458 6.27423C71.5118 6.27423 71.4793 6.28767 71.4553 6.31159C71.4313 6.33551 71.4178 6.36795 71.4178 6.40178L71.4202 11.1774C71.4202 11.1942 71.4236 11.2108 71.43 11.2263C71.4364 11.2417 71.4458 11.2558 71.4577 11.2676C71.4696 11.2795 71.4837 11.2889 71.4993 11.2953C71.5148 11.3017 71.5314 11.305 71.5482 11.305L76.7291 11.3197C76.7631 11.3197 76.7956 11.3331 76.8196 11.3571C76.8436 11.381 76.8571 11.4134 76.8571 11.4473L76.8547 14.0399C76.8547 14.0737 76.8412 14.1062 76.8172 14.1301C76.7932 14.154 76.7606 14.1674 76.7267 14.1674L71.5458 14.1699C71.5118 14.1699 71.4793 14.1833 71.4553 14.2073C71.4313 14.2312 71.4178 14.2636 71.4178 14.2974Z" fill="#F6F6F6"/>
<path d="M86.0819 15.0088L86.0843 22.2642C86.0843 22.3156 86.0641 22.3649 86.0281 22.4013C85.9921 22.4376 85.9433 22.458 85.8924 22.458H82.3162C82.2751 22.458 82.2356 22.442 82.2065 22.4135C82.1775 22.385 82.1611 22.3463 82.1611 22.3059V3.5516C82.1611 3.5221 82.173 3.49377 82.1942 3.47267C82.2153 3.45158 82.2441 3.43941 82.2743 3.43877C84.4698 3.4306 86.6619 3.43387 88.8508 3.44858C89.4037 3.45185 90.1003 3.59248 90.9404 3.87047C93.82 4.81726 93.9652 8.19236 93.6305 10.731C93.5206 11.5568 93.3343 12.2461 93.0718 12.7988C92.0848 14.8739 88.4471 14.9352 86.2763 14.8273C86.1467 14.8207 86.0819 14.8812 86.0819 15.0088ZM86.0868 6.37726L86.077 11.9207C86.077 11.9473 86.0876 11.9729 86.1065 11.9918C86.1254 12.0106 86.1511 12.0212 86.1779 12.0212L87.758 12.0237C88.3004 12.0243 88.8209 11.8071 89.2049 11.4198C89.589 11.0324 89.8051 10.5068 89.8057 9.9584L89.8107 8.34934C89.811 8.07779 89.7584 7.80885 89.6559 7.55785C89.5535 7.30685 89.4031 7.07872 89.2134 6.88649C89.0237 6.69425 88.7984 6.54167 88.5504 6.43747C88.3023 6.33326 88.0364 6.27946 87.7678 6.27915L86.1877 6.2767C86.1745 6.2767 86.1613 6.2793 86.1491 6.28435C86.1369 6.28941 86.1257 6.29681 86.1164 6.30615C86.107 6.31549 86.0996 6.32658 86.0945 6.33878C86.0894 6.35098 86.0868 6.36406 86.0868 6.37726Z" fill="#F6F6F6"/>
<path d="M103.882 13.2305C105.828 13.5085 106.787 14.6409 106.761 16.6277C106.728 19.0216 106.765 20.9226 106.872 22.3305C106.879 22.4155 106.838 22.4581 106.751 22.4581H103.19C103.148 22.4579 103.107 22.4426 103.075 22.4151C103.043 22.3876 103.023 22.3497 103.018 22.3084C102.774 20.4835 102.875 18.5262 102.84 16.6816C102.799 14.4913 100.945 14.6384 99.375 14.636C99.3398 14.636 99.306 14.6499 99.281 14.6748C99.2561 14.6996 99.2421 14.7333 99.2421 14.7684L99.2446 22.333C99.2446 22.3674 99.2308 22.4005 99.2064 22.4249C99.1819 22.4493 99.1487 22.463 99.1141 22.463L95.5699 22.4703C95.5014 22.4703 95.4357 22.4429 95.3872 22.3942C95.3387 22.3454 95.3115 22.2793 95.3115 22.2103L95.314 3.55901C95.314 3.52843 95.3262 3.49911 95.3479 3.47749C95.3696 3.45587 95.399 3.44372 95.4297 3.44372C97.3543 3.43718 99.284 3.42655 101.218 3.41184C105.046 3.3824 106.808 4.83448 106.781 8.77372C106.776 9.71888 106.614 10.5569 106.294 11.2879C105.769 12.4873 104.94 12.7669 103.874 13.1594C103.784 13.1921 103.786 13.2158 103.882 13.2305ZM99.2273 6.39448L99.2569 11.7024C99.2569 11.7304 99.268 11.7572 99.2879 11.777C99.3077 11.7968 99.3346 11.8079 99.3627 11.8079L100.903 11.7981C101.158 11.7968 101.411 11.7444 101.646 11.6437C101.881 11.5431 102.094 11.3962 102.274 11.2115C102.453 11.0267 102.595 10.8078 102.692 10.5671C102.788 10.3265 102.837 10.0688 102.836 9.80882L102.826 8.24882C102.823 7.72388 102.616 7.22147 102.25 6.8521C101.884 6.48273 101.389 6.27665 100.874 6.27919L99.3332 6.28901C99.3051 6.28901 99.2782 6.30012 99.2583 6.3199C99.2385 6.33968 99.2273 6.3665 99.2273 6.39448Z" fill="#F6F6F6"/>
<path d="M17.0096 14.3589L17.0145 22.4042C17.0145 22.4373 17.0013 22.4692 16.9778 22.4926C16.9542 22.5161 16.9223 22.5293 16.889 22.5293H13.2168C13.1835 22.5293 13.1516 22.5161 13.1281 22.4926C13.1045 22.4692 13.0913 22.4373 13.0913 22.4042V3.62039C13.0913 3.60396 13.0945 3.58769 13.1009 3.57251C13.1072 3.55734 13.1164 3.54355 13.1281 3.53193C13.1397 3.52032 13.1536 3.5111 13.1688 3.50481C13.184 3.49853 13.2003 3.49529 13.2168 3.49529H16.889C16.9223 3.49529 16.9542 3.50847 16.9778 3.53193C17.0013 3.55539 17.0145 3.58721 17.0145 3.62039L17.0121 11.2659C17.0121 11.299 17.0253 11.3309 17.0488 11.3543C17.0724 11.3778 17.1043 11.391 17.1376 11.391L20.603 11.3885C20.6363 11.3885 20.6682 11.3753 20.6918 11.3519C20.7153 11.3284 20.7285 11.2966 20.7285 11.2634V3.62284C20.7285 3.58966 20.7418 3.55784 20.7653 3.53438C20.7888 3.51092 20.8208 3.49775 20.8541 3.49775L24.5262 3.49284C24.5595 3.49284 24.5914 3.50602 24.615 3.52948C24.6385 3.55294 24.6518 3.58476 24.6518 3.61793V22.4042C24.6518 22.4373 24.6385 22.4692 24.615 22.4926C24.5914 22.5161 24.5595 22.5293 24.5262 22.5293L20.8541 22.5317C20.8208 22.5317 20.7888 22.5185 20.7653 22.4951C20.7418 22.4716 20.7285 22.4398 20.7285 22.4066V14.3589C20.7285 14.3257 20.7153 14.2939 20.6918 14.2704C20.6682 14.247 20.6363 14.2338 20.603 14.2338H17.1351C17.1018 14.2338 17.0699 14.247 17.0464 14.2704C17.0228 14.2939 17.0096 14.3257 17.0096 14.3589Z" fill="#F6F6F6"/>
<path d="M127 12.3597V13.5518C126.387 18.6512 122.422 22.664 117.143 22.4678C107.396 22.1097 104.285 9.24705 112.87 4.57686C115.917 2.9212 119.567 3.09045 122.511 4.92271C125.094 6.53013 126.59 9.00913 127 12.3597ZM125.912 12.9459C125.912 10.697 125.016 8.54026 123.42 6.95005C121.825 5.35985 119.66 4.46649 117.404 4.46649C115.147 4.46649 112.983 5.35985 111.387 6.95005C109.792 8.54026 108.895 10.697 108.895 12.9459C108.895 15.1948 109.792 17.3516 111.387 18.9418C112.983 20.532 115.147 21.4253 117.404 21.4253C119.66 21.4253 121.825 20.532 123.42 18.9418C125.016 17.3516 125.912 15.1948 125.912 12.9459Z" fill="#F6F6F6"/>
<path d="M117.438 20.6674C121.735 20.6674 125.218 17.1961 125.218 12.9141C125.218 8.63197 121.735 5.16066 117.438 5.16066C113.141 5.16066 109.658 8.63197 109.658 12.9141C109.658 17.1961 113.141 20.6674 117.438 20.6674Z" fill="#F6F6F6"/>
</g>
<defs>
<clipPath id="clip0_192_6633">
<rect width="127" height="26" fill="white"/>
</clipPath>
</defs>
</svg>
