<svg width="124" height="25" viewBox="0 0 124 25" fill="none" xmlns="http://www.w3.org/2000/svg">
<path d="M5.29668 24.0408C3.57471 24.0408 2.25599 23.5504 1.34052 22.5695C0.446839 21.5886 0 20.2045 0 18.4172V6.12364C0 4.33628 0.446839 2.95217 1.34052 1.9713C2.25599 0.990434 3.57471 0.5 5.29668 0.5C7.01865 0.5 8.32647 0.990434 9.22015 1.9713C10.1356 2.95217 10.5934 4.33628 10.5934 6.12364V8.54311H7.19302V5.89477C7.19302 4.47796 6.5936 3.76956 5.39477 3.76956C4.19593 3.76956 3.59651 4.47796 3.59651 5.89477V18.6787C3.59651 20.0737 4.19593 20.7712 5.39477 20.7712C6.5936 20.7712 7.19302 20.0737 7.19302 18.6787V15.1803H10.5934V18.4172C10.5934 20.2045 10.1356 21.5886 9.22015 22.5695C8.32647 23.5504 7.01865 24.0408 5.29668 24.0408Z" fill="#F6F6F6"/>
<path d="M12.7451 0.826955H16.3416V10.1452H20.1997V0.826955H23.7962V23.7138H20.1997V13.4147H16.3416V23.7138H12.7451V0.826955Z" fill="#F6F6F6"/>
<path d="M26.4747 0.826955H36.2834V4.09651H30.0712V10.1452H35.0083V13.4147H30.0712V20.4443H36.2834V23.7138H26.4747V0.826955Z" fill="#F6F6F6"/>
<path d="M41.5877 12.0088L37.6316 0.826955H41.4242L43.8437 8.21615H43.9091L46.394 0.826955H49.7943L45.8382 12.0088L49.9905 23.7138H46.1978L43.5822 15.7361H43.5168L40.8357 23.7138H37.4354L41.5877 12.0088Z" fill="#F6F6F6"/>
<path d="M56.2558 24.0408C54.5338 24.0408 53.2151 23.5504 52.2996 22.5695C51.4059 21.5886 50.9591 20.2045 50.9591 18.4172V6.12364C50.9591 4.33628 51.4059 2.95217 52.2996 1.9713C53.2151 0.990434 54.5338 0.5 56.2558 0.5C57.9777 0.5 59.2856 0.990434 60.1792 1.9713C61.0947 2.95217 61.5525 4.33628 61.5525 6.12364V8.54311H58.1521V5.89477C58.1521 4.47796 57.5527 3.76956 56.3539 3.76956C55.155 3.76956 54.5556 4.47796 54.5556 5.89477V18.6787C54.5556 20.0737 55.155 20.7712 56.3539 20.7712C57.5527 20.7712 58.1521 20.0737 58.1521 18.6787V15.1803H61.5525V18.4172C61.5525 20.2045 61.0947 21.5886 60.1792 22.5695C59.2856 23.5504 57.9777 24.0408 56.2558 24.0408Z" fill="#F6F6F6"/>
<path d="M63.7042 0.826955H67.3007V10.1452H71.1588V0.826955H74.7553V23.7138H71.1588V13.4147H67.3007V23.7138H63.7042V0.826955Z" fill="#F6F6F6"/>
<path d="M77.4338 20.2481H80.8995V23.7138H77.4338V20.2481Z" fill="#F6F6F6"/>
<path d="M88.4724 24.0408C86.7504 24.0408 85.4317 23.5504 84.5162 22.5695C83.6226 21.5886 83.1757 20.2045 83.1757 18.4172V6.12364C83.1757 4.33628 83.6226 2.95217 84.5162 1.9713C85.4317 0.990434 86.7504 0.5 88.4724 0.5C90.1944 0.5 91.5022 0.990434 92.3959 1.9713C93.3113 2.95217 93.7691 4.33628 93.7691 6.12364V8.54311H90.3687V5.89477C90.3687 4.47796 89.7693 3.76956 88.5705 3.76956C87.3716 3.76956 86.7722 4.47796 86.7722 5.89477V18.6787C86.7722 20.0737 87.3716 20.7712 88.5705 20.7712C89.7693 20.7712 90.3687 20.0737 90.3687 18.6787V15.1803H93.7691V18.4172C93.7691 20.2045 93.3113 21.5886 92.3959 22.5695C91.5022 23.5504 90.1944 24.0408 88.4724 24.0408Z" fill="#F6F6F6"/>
<path d="M101.183 24.0408C99.4177 24.0408 98.0663 23.5395 97.1291 22.5368C96.1918 21.5341 95.7231 20.1173 95.7231 18.2864V6.25442C95.7231 4.42347 96.1918 3.00666 97.1291 2.004C98.0663 1.00133 99.4177 0.5 101.183 0.5C102.949 0.5 104.3 1.00133 105.238 2.004C106.175 3.00666 106.643 4.42347 106.643 6.25442V18.2864C106.643 20.1173 106.175 21.5341 105.238 22.5368C104.3 23.5395 102.949 24.0408 101.183 24.0408ZM101.183 20.7712C102.426 20.7712 103.047 20.0192 103.047 18.5153V6.02555C103.047 4.52155 102.426 3.76956 101.183 3.76956C99.9409 3.76956 99.3196 4.52155 99.3196 6.02555V18.5153C99.3196 20.0192 99.9409 20.7712 101.183 20.7712Z" fill="#F6F6F6"/>
<path d="M109.076 0.826955H114.209L116.498 17.2074H116.563L118.852 0.826955H123.985V23.7138H120.585V6.3852H120.519L117.904 23.7138H114.896L112.28 6.3852H112.214V23.7138H109.076V0.826955Z" fill="#F6F6F6"/>
</svg>
