<svg width="148" height="34" viewBox="0 0 148 34" fill="none" xmlns="http://www.w3.org/2000/svg">
<path d="M4.43991 29.0244H9.57366L10.2212 28.4439C10.5727 28.1306 12.8019 26.1311 15.1699 24.0027C17.5379 21.8834 20.5349 19.1837 21.8299 18.0227C23.1249 16.8618 24.4199 15.7008 24.6974 15.4428C24.9749 15.1848 25.5576 14.6596 25.9924 14.2818C26.4271 13.904 27.0654 13.3236 27.4261 12.9918C28.1476 12.3192 30.1364 10.5409 31.6441 9.21407L32.6431 8.33873V6.65255L32.6524 4.97559H30.8301L28.9986 4.9848L27.1024 6.70784C26.0571 7.65689 23.3284 10.1078 21.0437 12.1626C18.7682 14.2173 16.8534 15.9404 16.7979 15.9864C16.5667 16.1983 10.2119 21.9111 9.84191 22.2336L9.43491 22.5929V11.8769L9.62916 12.0152C9.73091 12.0889 10.1194 12.4298 10.4802 12.7799C10.8502 13.1301 11.6087 13.8211 12.1637 14.3279C12.7279 14.8347 13.5512 15.5902 14.0044 16.0141C14.4484 16.4379 14.8554 16.7696 14.8924 16.7512C14.9294 16.7328 15.4844 16.2444 16.1134 15.6639C16.7424 15.0834 17.6397 14.2542 18.1114 13.8303C18.5832 13.3973 18.9532 13.0287 18.9439 12.9918C18.9162 12.9366 18.1484 12.2179 14.6612 9.02979C13.6992 8.14523 12.6724 7.21461 12.3949 6.9474C12.1174 6.68941 11.5162 6.13656 11.0629 5.73114L10.2489 4.97559H4.43991V29.0244Z" fill="#F6F6F6"/>
<path d="M91.5286 10.1447C88.8091 10.4211 86.8759 11.6834 86.2284 13.6092C86.0989 14.0146 86.0434 14.4108 86.0434 15.0282C86.0341 16.1246 86.2839 16.7788 86.9776 17.4883C87.8934 18.4282 89.1606 18.9349 92.0374 19.5338C94.1649 19.9761 94.6551 20.2341 94.7661 20.962C94.8309 21.4227 94.6089 21.9019 94.2111 22.1322C94.0539 22.2151 93.6191 22.3349 93.2491 22.3994C91.3991 22.6851 89.0681 21.9295 87.5974 20.575C87.4216 20.4092 87.2551 20.271 87.2274 20.2802C87.0979 20.2894 85.3681 22.7864 85.4144 22.897C85.5069 23.1366 86.9776 24.1593 87.7454 24.5187C90.5111 25.8179 94.4609 25.8271 96.6531 24.5371C98.1516 23.6433 99.0026 22.0032 98.8454 20.2618C98.7436 19.1008 98.2996 18.3084 97.3746 17.6265C96.4866 16.9815 95.7651 16.7143 93.6561 16.2536C90.6406 15.5902 90.1596 15.3599 90.1596 14.5214C90.1596 13.6553 90.7794 13.2683 92.2224 13.1946C93.8411 13.1208 95.3951 13.6553 96.5329 14.678L97.0879 15.1848L98.0313 13.9501C99.0951 12.5404 99.0859 12.6601 98.2441 11.9507C96.6901 10.6515 93.9151 9.89591 91.5286 10.1447Z" fill="#F6F6F6"/>
<path d="M107.022 10.1447C105.283 10.3382 103.711 11.0385 102.684 12.0704C100.455 14.3371 99.9461 18.7046 101.528 21.9295C102.36 23.5973 103.85 24.7675 105.774 25.2466C106.754 25.4954 108.16 25.5783 109.196 25.4401C112.286 25.0439 114.256 23.3116 115.088 20.2525C115.273 19.5799 115.301 19.2851 115.292 17.7832C115.283 15.7929 115.153 15.1387 114.478 13.775C113.793 12.4114 112.942 11.536 111.684 10.9187C110.408 10.2921 108.53 9.97884 107.022 10.1447ZM108.586 13.2683C109.307 13.3881 109.742 13.6092 110.177 14.0699C111 14.936 111.231 15.7745 111.231 17.8292C111.222 19.1745 111.194 19.4878 111.018 20.0406C110.51 21.6715 109.585 22.3902 107.984 22.3902C105.801 22.3902 104.71 20.8699 104.71 17.8385C104.71 14.807 105.653 13.4341 107.901 13.1853C107.957 13.1853 108.262 13.2222 108.586 13.2683Z" fill="#F6F6F6"/>
<path d="M39.2014 16.9539C39.1829 20.6027 39.1736 23.975 39.1736 24.4357V25.2927H43.0586L43.1511 21.0265L44.9086 18.9073L45.5376 19.9761C45.8891 20.575 46.3054 21.303 46.4626 21.607C46.6291 21.9111 46.7956 22.1967 46.8326 22.252C46.8789 22.2981 47.2951 23.0076 47.7669 23.8184L48.6271 25.2927L50.8194 25.3203C52.2346 25.3295 53.0024 25.3111 53.0024 25.2466C53.0024 25.2005 52.4566 24.2515 51.7906 23.155C51.1246 22.0493 50.3106 20.7133 49.9961 20.1788C49.6816 19.6444 49.0434 18.5848 48.5716 17.82L47.7206 16.4195L49.5984 14.1805C50.6344 12.9458 51.7536 11.6097 52.0959 11.1951C52.4381 10.7897 52.7249 10.4303 52.7249 10.3843C52.7249 10.3474 51.7721 10.3198 50.6066 10.3198H48.4791L47.9889 10.9002C47.7206 11.2227 47.3691 11.6466 47.2026 11.8493C47.0454 12.0428 46.5274 12.6878 46.0649 13.2683C45.5931 13.8488 44.7421 14.9084 44.1779 15.6086L43.1511 16.8894L43.1234 13.6L43.1049 10.3198H39.2199L39.2014 16.9539Z" fill="#F6F6F6"/>
<path d="M54.6119 10.4488C54.5841 10.5225 54.5749 12.8352 54.5934 15.5902C54.6396 21.1279 54.6489 21.2937 55.2501 22.4824C55.6386 23.2563 56.5729 24.2422 57.2944 24.6477C59.4126 25.8086 63.3624 25.7902 65.4436 24.6016C66.3871 24.058 67.2844 22.9246 67.6266 21.8374C68.0059 20.6395 68.0336 20.0775 68.0059 15.0834L67.9874 10.3198H64.1116L64.0746 15.2217C64.0376 20.5566 64.0284 20.6856 63.5196 21.4412C63.0941 22.0677 62.5484 22.3257 61.5124 22.3718C60.4671 22.4271 59.8751 22.2428 59.3386 21.6992C58.5986 20.962 58.6079 21.0726 58.5709 15.3599L58.5431 10.3198H56.6006C55.0096 10.3198 54.6489 10.3474 54.6119 10.4488Z" fill="#F6F6F6"/>
<path d="M71.0399 25.3387H74.8324L74.8509 22.5929L74.8786 19.8563H77.1726L77.8664 21.0081C78.2456 21.6439 78.9671 22.8601 79.4574 23.7263L80.3639 25.2927L82.5006 25.3203C83.9899 25.3387 84.6374 25.3111 84.6374 25.2466C84.6374 25.1913 84.3876 24.7582 84.0824 24.2975C83.7864 23.8276 82.9354 22.5192 82.1954 21.3767L80.8634 19.3035L81.5479 18.9441C83.0556 18.1609 83.8049 16.8618 83.8049 15.0189C83.8049 12.7246 82.6209 11.2412 80.2436 10.5685C79.6516 10.4027 79.2446 10.3843 75.3226 10.3474L71.0399 10.3013V25.3387ZM79.0226 13.5815C79.5776 13.858 79.7719 14.2173 79.8089 15.0282C79.8551 15.8574 79.7071 16.2721 79.2539 16.6222C78.8099 16.9539 78.1994 17.046 76.3956 17.046H74.8324V13.3512L76.7564 13.3788C78.4029 13.4065 78.7174 13.4341 79.0226 13.5815Z" fill="#F6F6F6"/>
<path d="M118.03 25.3387H121.915V19.5338H128.112V16.4932H121.915V13.3604H129.685V10.3198H118.03V25.3387Z" fill="#F6F6F6"/>
<path d="M131.905 25.3387H135.79V19.5338H141.987V16.4932H135.79V13.3604H143.467V10.3198H131.905V25.3387Z" fill="#F6F6F6"/>
<path d="M23.4486 17.5805C22.1721 18.7691 20.5442 20.271 20.2759 20.5105L19.9614 20.787L21.0529 21.7913C21.6449 22.3534 22.1814 22.8509 22.2369 22.897C22.2924 22.9523 23.5042 24.0672 24.9286 25.3848C26.3439 26.7024 27.8146 28.0569 28.1846 28.407L28.8599 29.0244L30.7376 29.0059L32.6061 28.9783L32.6246 27.0894L32.6524 25.2005L31.8384 24.4634C30.9134 23.6249 26.1034 19.1837 25.1136 18.2531C24.7529 17.9214 24.3366 17.5344 24.1886 17.3962L23.9111 17.1474L23.4486 17.5805Z" fill="#F6F6F6"/>
</svg>
