<svg width="140" height="32" viewBox="0 0 140 32" fill="none" xmlns="http://www.w3.org/2000/svg">
<g clip-path="url(#clip0_192_6629)">
<path d="M17.3738 11.922V17.1431H5.32732V18.9468C7.24707 18.9468 9.26282 18.9625 11.3745 18.9942C13.4862 18.9942 15.502 18.9942 17.4217 18.9942V26.2089H14.3501V29.1992H0V24.0255H12.0944V22.1744H0V14.9123H3.02361V11.8744L17.3738 11.922Z" fill="#F6F6F6"/>
<path d="M40.7569 12.0647V17.2859H28.5665V23.9784H40.7569V29.1996H26.8867V26.2567H23.4792V15.055H26.8867V12.0647H40.7569Z" fill="#F6F6F6"/>
<path d="M60.5361 12.0647V15.055H63.8957V29.1996H50.0734V26.2567H46.6659V18.9471H58.8564V17.2859H50.0734V12.0647H60.5361ZM58.8564 22.1748H51.7532V23.9784H58.8564V22.1748Z" fill="#F6F6F6"/>
<path d="M83.2218 12.0647V15.055H86.6293V29.247H81.5419V17.2859H74.6788V29.247H69.3514V12.1122L83.2218 12.0647Z" fill="#F6F6F6"/>
<path d="M97.5029 3.99553V12.1121H106.046V15.1024H109.453V26.2566H106.046V29.1995C104.99 29.1995 103.822 29.1995 102.542 29.1995C101.294 29.1678 100.142 29.1521 99.0866 29.1521H92.2235V3.99553H97.5029ZM97.5029 23.9784H104.366V17.3807H97.5029V23.9784Z" fill="#F6F6F6"/>
<path fill-rule="evenodd" clip-rule="evenodd" d="M119.765 29.1522V12.1122H114.486V29.1522H119.765Z" fill="#F6F6F6"/>
<path d="M119.765 4.04297V9.21666H114.486V4.04297H119.765Z" fill="#F6F6F6"/>
<path d="M122.975 1.55859H118.176V6.30511H122.975V1.55859Z" fill="#F6F6F6"/>
<path fill-rule="evenodd" clip-rule="evenodd" d="M140 11.8737H131.698V8.02902H126.609V11.8739H124.457V17.095H126.609V26.2556H130.018V29.1985H139.904L139.952 23.9298H131.698V17.095L140 17.0948V11.8737Z" fill="#F6F6F6"/>
</g>
<defs>
<clipPath id="clip0_192_6629">
<rect width="140" height="32" fill="white"/>
</clipPath>
</defs>
</svg>
