<svg width="103" height="26" viewBox="0 0 103 26" fill="none" xmlns="http://www.w3.org/2000/svg">
<g clip-path="url(#clip0_192_6631)">
<path fill-rule="evenodd" clip-rule="evenodd" d="M25.0191 7.70472C26.0731 7.77232 27.1256 7.55166 28.063 7.06666C29.0004 6.5817 29.7871 5.85076 30.3383 4.95273C31.0567 3.937 31.3985 2.704 31.3054 1.46474C31.2283 0.760735 30.9978 0.51629 30.6139 0.731402C29.6482 1.26708 28.5781 1.58906 27.4764 1.6754C26.3014 1.82848 25.1156 1.88201 23.9316 1.8354C22.906 1.78207 21.3247 1.6594 19.1875 1.4674C17.0504 1.2754 15.5696 1.15807 14.7451 1.1154C14.1539 1.07096 13.6026 1.04429 13.0911 1.0354C12.5797 1.02652 11.7171 1.05852 10.5034 1.1314C9.41148 1.1897 8.32596 1.33416 7.2569 1.5634C6.20429 1.81326 5.18422 2.18373 4.21707 2.6674C3.23031 3.12222 2.35205 3.78128 1.64072 4.60074C0.662156 5.68074 0.091723 7.06686 0.027505 8.52072C-0.0519646 9.19112 0.0414525 9.87059 0.298933 10.495C0.556412 11.1193 0.969439 11.6679 1.49893 12.0887C2.34606 12.7473 3.39367 13.0974 4.46788 13.0807C5.46207 13.1059 6.4503 12.9205 7.36726 12.5367C8.06498 12.247 8.70512 11.8351 9.25738 11.3207C9.54109 11.0609 9.77519 10.7519 9.94828 10.4087C9.99289 10.3366 10.0166 10.2535 10.0166 10.1687C10.0166 10.084 9.99289 10.0009 9.94828 9.92872C9.80308 9.78326 9.6465 9.64952 9.4801 9.52872C9.27269 9.37672 9.10254 9.17979 8.98249 8.95272C8.77428 8.63666 8.6991 8.25159 8.77314 7.88072C8.83588 7.36372 8.99874 6.86379 9.25269 6.40874C9.57768 5.85404 10.061 5.40842 10.6412 5.12874C11.3681 4.76137 12.1822 4.59995 12.9948 4.66207H13.0269L9.10154 16.9194C8.34088 19.2874 8.41532 21.2983 9.32493 22.9521C10.2345 24.6059 11.9822 25.4965 14.5679 25.6241C15.8379 25.6911 17.1095 25.5285 18.3214 25.1441C19.4163 24.8179 20.4455 24.3035 21.3626 23.6241C22.0869 23.0796 22.7586 22.4689 23.3691 21.8001C23.8116 21.3262 24.1855 20.7931 24.48 20.2161C24.5678 20.1014 24.6291 19.9687 24.6592 19.8276C24.6894 19.6865 24.6879 19.5405 24.6546 19.4001C24.5676 19.2401 24.3447 19.2561 23.9857 19.4481C22.7986 20.0724 21.5062 20.4738 20.1734 20.6321C19.0247 20.8393 17.8396 20.6591 16.8052 20.1201C15.9308 19.6081 15.6742 18.7547 16.0353 17.5601C16.0393 17.5387 16.2846 16.7707 16.771 15.2561H22.0689C22.1197 15.264 22.1717 15.2517 22.2135 15.2217C22.2553 15.1918 22.2836 15.1467 22.2923 15.0961L23.3323 11.8961L23.345 11.8294L23.2032 11.7334H17.9054C18.0445 11.3494 18.3176 10.5227 18.7247 9.25339C19.1318 7.98406 19.4176 7.09339 19.5821 6.5814C21.3372 7.19206 23.1652 7.56972 25.0191 7.70472ZM36.9056 15.6414C36.9085 15.6261 36.908 15.6103 36.9042 15.5952C36.9004 15.5801 36.8934 15.5659 36.8836 15.5538C36.8739 15.5416 36.8616 15.5317 36.8475 15.5247C36.8335 15.5178 36.8182 15.5139 36.8026 15.5134H27.2637C27.214 15.5117 27.1651 15.5265 27.1247 15.5555C27.0842 15.5845 27.0546 15.6259 27.0403 15.6734L26.1514 18.4254L26.2852 18.5534H35.8528C35.8851 18.5596 35.9184 18.553 35.9459 18.5351C35.9734 18.5172 35.9927 18.4893 36 18.4574L36.9056 15.6414ZM63.3913 18.6174L64.9725 13.6247C65.4893 12.0692 65.4741 10.7999 64.927 9.81672C64.6678 9.34132 64.2772 8.95006 63.8016 8.68932C63.3259 8.42866 62.7852 8.30952 62.2436 8.34606C61.1225 8.39026 60.0296 8.70899 59.0613 9.27406C57.782 9.99786 56.6674 10.9785 55.788 12.1541C55.8722 11.6695 55.8569 11.173 55.743 10.6945C55.6292 10.216 55.4193 9.76546 55.1259 9.37006C54.8348 9.02712 54.4678 8.75619 54.0538 8.57852C53.6399 8.40086 53.1902 8.32126 52.7402 8.34606C51.6404 8.38952 50.5673 8.69692 49.612 9.24206C48.352 9.93812 47.2495 10.8859 46.3736 12.0261C46.4671 11.5555 46.4578 11.0705 46.3463 10.6039C46.2348 10.1373 46.0237 9.70006 45.7275 9.32206C45.4 8.98186 45.0013 8.71792 44.5596 8.54919C44.1179 8.38046 43.6443 8.31112 43.1725 8.34606C42.2356 8.36752 41.3177 8.61452 40.4972 9.06606C39.7352 9.40672 39.0771 9.94212 38.5897 10.6181C38.5608 10.6457 38.5383 10.6793 38.524 10.7165C38.5097 10.7537 38.5038 10.7937 38.5068 10.8335C38.5098 10.8733 38.5216 10.9119 38.5414 10.9465C38.5611 10.9813 38.5884 11.0111 38.6211 11.0341C38.7607 11.1407 38.9361 11.2847 39.1475 11.4661C39.2776 11.6411 39.3716 11.8401 39.4242 12.0516C39.4768 12.263 39.4868 12.4827 39.4538 12.6981C39.3886 13.6461 39.2011 14.5818 38.896 15.4821C38.4385 16.9541 37.3619 20.1223 35.6662 24.9867L35.6542 25.0534L35.7271 25.1461H42.1786C42.2249 25.1253 42.2681 25.0984 42.3071 25.0661C42.3418 25.0377 42.3655 24.9981 42.3739 24.9541L45.1021 16.3774C45.3884 15.4833 45.8336 14.6479 46.4164 13.9107C47.1347 13.0787 47.7619 12.7161 48.2978 12.8227C48.8975 12.9294 49.0126 13.5481 48.6429 14.6787C48.3241 15.7667 48.0911 16.5241 47.944 16.9507C47.4811 18.3374 46.6391 21.015 45.4178 24.9834C45.4118 24.9862 45.4064 24.9904 45.4024 24.9957C45.3983 25.0009 45.3955 25.0071 45.3944 25.0136C45.3932 25.0201 45.3936 25.0269 45.3956 25.0333C45.3976 25.0396 45.4011 25.0453 45.4058 25.0501L45.4874 25.1461H51.9436C51.9896 25.1253 52.0326 25.0984 52.0714 25.0661C52.1058 25.0375 52.1294 24.9979 52.1382 24.9541L54.433 16.9541L54.6089 16.3781C54.8715 15.4743 55.319 14.6345 55.9231 13.9114C56.6415 13.0794 57.2686 12.7167 57.8046 12.8234C58.4043 12.9301 58.5194 13.5487 58.1497 14.6794L56.1713 20.8881C55.7138 22.3601 55.8004 23.5379 56.4308 24.4214C56.7689 24.8708 57.2151 25.2281 57.7283 25.4601C58.2415 25.6923 58.8051 25.7917 59.367 25.7494C60.3039 25.7279 61.2218 25.4809 62.0423 25.0294C62.796 24.6932 63.4505 24.1699 63.9431 23.5094C63.9949 23.4653 64.0278 23.4031 64.0352 23.3355C64.0424 23.268 64.0237 23.2003 63.9826 23.1461C63.8591 23.0257 63.715 22.9281 63.5572 22.8581C63.3307 22.7277 63.155 22.5246 63.0589 22.2821C62.9032 21.8743 62.8401 21.4371 62.8743 21.0021C62.9395 20.1881 63.1124 19.3862 63.3887 18.6174H63.3913ZM83.4562 17.7214C84.2247 15.3107 84.0341 13.2092 82.8844 11.4167C81.7347 9.62432 79.8927 8.63232 77.3592 8.44072C74.8109 8.27952 72.2874 9.01572 70.2281 10.5207C68.0992 11.9315 66.5112 14.0179 65.7215 16.4414C64.9524 18.8521 65.1482 20.9537 66.3088 22.7461C67.4691 24.5385 69.3151 25.5305 71.846 25.7221C74.4029 25.8985 76.9398 25.1663 79.0065 23.6554C81.1126 22.2285 82.6784 20.1393 83.4536 17.7214H83.4562ZM71.963 16.8894C72.3503 15.5957 72.9669 14.3819 73.7843 13.3054C74.0478 12.904 74.4089 12.5759 74.8343 12.352C75.2597 12.1281 75.7352 12.0157 76.2161 12.0254C76.6214 12.0435 77.0047 12.2165 77.2856 12.5084C77.5665 12.8003 77.7243 13.1889 77.7257 13.5934C77.8327 14.8427 77.6595 16.1 77.218 17.2741C76.8381 18.5785 76.2248 19.8036 75.4068 20.8901C75.1447 21.2846 74.7862 21.6061 74.3648 21.8245C73.9434 22.0428 73.4739 22.1507 72.999 22.1381C72.5917 22.1182 72.2078 21.9424 71.9269 21.6473C71.6467 21.3522 71.4908 20.9606 71.4928 20.5541C71.3818 19.3132 71.541 18.0631 71.9604 16.8894H71.963ZM100.794 18.6174C101.071 17.7427 101.38 16.7872 101.72 15.7507C102.06 14.7143 102.289 14.005 102.407 13.6227C102.903 12.0672 102.876 10.7979 102.329 9.81472C102.071 9.33899 101.68 8.94732 101.204 8.68639C100.729 8.42539 100.188 8.30612 99.646 8.34272C98.5083 8.38979 97.3974 8.70219 96.4022 9.25472C95.0946 9.95272 93.9495 10.9177 93.0419 12.0867C93.1436 11.6123 93.1389 11.1213 93.0286 10.6489C92.9182 10.1764 92.7042 9.73406 92.4025 9.35339C92.0741 9.00526 91.6722 8.73419 91.2254 8.55986C90.7793 8.38552 90.2991 8.31232 89.8208 8.34539C88.8838 8.36666 87.9662 8.61372 87.1455 9.06539C86.3837 9.40586 85.7256 9.94132 85.238 10.6174C85.1939 10.6643 85.1671 10.7253 85.1638 10.7897C85.1598 10.8542 85.1792 10.9178 85.2179 10.9694C85.3263 11.0765 85.4487 11.168 85.5825 11.2414C85.7804 11.3833 85.9269 11.5854 85.9998 11.8174C86.1296 12.231 86.175 12.6661 86.1336 13.0974C86.0567 13.9107 85.8794 14.7115 85.6052 15.4814C85.1263 16.9534 84.0288 20.1216 82.3119 24.9861C82.3058 25.0029 82.3038 25.0209 82.3058 25.0387C82.3079 25.0564 82.3132 25.0735 82.3226 25.0888C82.3319 25.1041 82.3446 25.1171 82.3594 25.1271C82.3741 25.1369 82.3915 25.1435 82.4088 25.1461H88.8296C88.8798 25.1406 88.9266 25.1188 88.9627 25.0841C88.9988 25.0494 89.0229 25.0037 89.0303 24.9541L91.7585 16.3774C92.0454 15.4822 92.5116 14.6547 93.1302 13.9454C93.8954 13.0921 94.5782 12.7187 95.1782 12.8254C95.7995 12.9321 95.936 13.5507 95.5875 14.6814L93.6098 20.8901C93.1302 22.3621 93.2058 23.5399 93.8365 24.4234C94.1749 24.8727 94.6211 25.2299 95.1341 25.4621C95.647 25.6941 96.2109 25.7937 96.7727 25.7514C97.7097 25.7299 98.6274 25.4829 99.448 25.0314C100.206 24.6887 100.87 24.1671 101.381 23.5114C101.426 23.4612 101.451 23.3968 101.452 23.3299C101.453 23.2629 101.43 23.1977 101.387 23.1461C101.263 23.0257 101.119 22.9281 100.962 22.8581C100.736 22.7275 100.56 22.5245 100.464 22.2821C100.307 21.8745 100.245 21.4371 100.279 21.0021C100.344 20.1881 100.515 19.3862 100.791 18.6174H100.794Z" fill="#F6F6F6"/>
</g>
<defs>
<clipPath id="clip0_192_6631">
<rect width="103" height="26" fill="white"/>
</clipPath>
</defs>
</svg>
