<svg width="134" height="33" viewBox="0 0 134 33" fill="none" xmlns="http://www.w3.org/2000/svg">
<g clip-path="url(#clip0_192_6648)">
<path d="M35.2085 11.6182H48.7741V14.1388H43.4409V28.3113H40.5063V14.1388H35.196V11.6172H35.2075L35.2085 11.6182ZM48.195 16.2236H50.7027V18.5569H50.7496C50.8329 18.2269 50.986 17.9085 51.211 17.6018C51.6919 16.9445 52.3429 16.4349 53.0917 16.1295C53.4721 15.9766 53.8771 15.8966 54.2863 15.8936C54.5925 15.8936 54.8184 15.9052 54.9371 15.9179C55.0548 15.9295 55.1726 15.9528 55.3027 15.9645V18.5326C55.1107 18.4986 54.9176 18.471 54.7237 18.4501C54.5312 18.427 54.3375 18.4154 54.1436 18.4152C53.6938 18.4152 53.2688 18.5093 52.8668 18.687C52.4648 18.8626 52.1212 19.1334 51.8264 19.476C51.5119 19.8591 51.271 20.2986 51.1162 20.7718C50.9391 21.2901 50.8559 21.8782 50.8559 22.5509V28.2997H48.1835V16.2236H48.195ZM67.5915 28.3123H64.9661V26.6273H64.9182C64.587 27.2407 64.1027 27.7241 63.4519 28.089C62.801 28.454 62.1387 28.6423 61.4648 28.6423C59.8683 28.6423 58.7083 28.254 58 27.464C57.2898 26.6749 56.9347 25.485 56.9347 23.8942V16.2246H59.608V23.635C59.608 24.6959 59.809 25.45 60.2234 25.8858C60.6254 26.3216 61.2045 26.5458 61.9377 26.5458C62.5052 26.5458 62.9666 26.4633 63.3447 26.2857C63.7237 26.109 64.0309 25.8858 64.2559 25.5907C64.4923 25.3083 64.6579 24.955 64.7651 24.5542C64.8703 24.1533 64.9182 23.7175 64.9182 23.2468V16.2362H67.5915V28.3123ZM72.1446 24.4367C72.2279 25.2132 72.5227 25.7567 73.0319 26.0741C73.5516 26.3808 74.1671 26.5458 74.8888 26.5458C75.1376 26.5458 75.4209 26.5215 75.7406 26.4866C76.0594 26.4507 76.3666 26.3682 76.6394 26.2634C76.9227 26.1566 77.1467 25.9916 77.3362 25.78C77.5142 25.5665 77.5965 25.2967 77.585 24.955C77.5835 24.7965 77.549 24.64 77.4839 24.4958C77.4188 24.3517 77.3244 24.2231 77.207 24.1184C76.9696 23.8951 76.6748 23.7301 76.3072 23.5884C75.8978 23.4446 75.4788 23.3304 75.0534 23.2468C74.5806 23.1526 74.1077 23.0459 73.6234 22.9401C73.1355 22.833 72.6537 22.6992 72.18 22.5392C71.7358 22.3949 71.3169 22.1803 70.9386 21.9035C70.5701 21.6427 70.2695 21.2949 70.0628 20.8902C69.8389 20.4777 69.7317 19.971 69.7317 19.3586C69.7317 18.6986 69.8973 18.157 70.2169 17.7086C70.5394 17.2639 70.9557 16.8979 71.4354 16.6371C71.9509 16.3607 72.5052 16.1659 73.0788 16.0596C73.6818 15.9538 74.2618 15.8946 74.8055 15.8946C75.4324 15.8946 76.0354 15.9654 76.604 16.0955C77.1544 16.215 77.679 16.4343 78.1526 16.7429C78.614 17.0379 78.992 17.4262 79.3002 17.8979C79.6075 18.3686 79.797 18.9461 79.8793 19.6177H77.0883C76.9581 18.982 76.6738 18.5462 76.2134 18.3337C75.7521 18.1104 75.2199 18.0037 74.6284 18.0037C74.4389 18.0037 74.214 18.0153 73.9546 18.0512C73.7046 18.0849 73.4587 18.1441 73.2205 18.2279C73.0027 18.3092 72.8051 18.4377 72.6414 18.6045C72.5619 18.6915 72.5001 18.7935 72.4596 18.9048C72.419 19.016 72.4004 19.1343 72.405 19.2528C72.405 19.5828 72.5227 19.842 72.7476 20.0419C72.9726 20.2418 73.2683 20.4068 73.6349 20.5485C74.0015 20.6786 74.4159 20.796 74.8888 20.8902C75.3616 20.9843 75.8459 21.0901 76.3436 21.1969C76.8279 21.3027 77.3008 21.4444 77.7746 21.5968C78.2474 21.7501 78.6609 21.9627 79.0284 22.2335C79.395 22.5043 79.6907 22.8343 79.9147 23.2351C80.1396 23.635 80.2583 24.1417 80.2583 24.7308C80.2583 25.449 80.0928 26.0508 79.7606 26.5575C79.4304 27.0525 79.0045 27.464 78.4838 27.7707C77.9387 28.0891 77.3481 28.3196 76.7332 28.454C76.1076 28.5935 75.469 28.6645 74.8285 28.6656C74.1111 28.6737 73.3958 28.5866 72.7007 28.4064C72.0499 28.2298 71.4823 27.9706 71.0095 27.63C70.5421 27.2856 70.1579 26.8383 69.8858 26.3216C69.6139 25.8033 69.4713 25.1782 69.4484 24.46H72.1446V24.4367ZM80.9676 16.2255H82.99V12.5955H85.6633V16.2255H88.0753V18.2152H85.6643V24.6726C85.6643 24.954 85.6758 25.1909 85.6997 25.4025C85.7227 25.6034 85.782 25.78 85.8653 25.9207C85.9557 26.0686 86.0931 26.1809 86.2548 26.2391C86.4329 26.31 86.6568 26.3459 86.965 26.3459C87.1536 26.3459 87.3431 26.3459 87.5326 26.3332C87.7221 26.3216 87.9107 26.2983 88.1002 26.2507V28.3123C87.8044 28.3482 87.5087 28.3715 87.2369 28.4064C86.9503 28.4402 86.662 28.4561 86.3735 28.454C85.6643 28.454 85.0967 28.3831 84.6698 28.254C84.2448 28.124 83.9012 27.924 83.6648 27.6649C83.416 27.4057 83.2628 27.0874 83.168 26.6982C83.0759 26.2605 83.0246 25.815 83.0149 25.3675V18.2376H80.9925V16.2226H80.9685L80.9676 16.2255ZM89.9676 16.2255H92.4992V17.862H92.5471C92.9242 17.1554 93.4449 16.6604 94.1187 16.3546C94.8075 16.0441 95.554 15.8872 96.3077 15.8946C97.2649 15.8946 98.0928 16.0596 98.803 16.4012C99.5122 16.7312 100.104 17.1913 100.577 17.7795C101.049 18.3686 101.393 19.0519 101.629 19.8303C101.87 20.64 101.99 21.4819 101.985 22.3276C101.985 23.14 101.878 23.9291 101.665 24.6842C101.469 25.4126 101.144 26.0989 100.707 26.7098C100.277 27.2988 99.7183 27.7789 99.0748 28.1123C98.4125 28.4656 97.6439 28.6423 96.7451 28.6423C96.3523 28.6418 95.9602 28.6061 95.5736 28.5355C95.1879 28.465 94.8113 28.3508 94.4509 28.1948C94.0928 28.0433 93.7579 27.8407 93.4564 27.5931C93.1588 27.3523 92.8995 27.0666 92.6878 26.7457H92.6399V32.778H89.9676V16.2236V16.2255ZM99.3112 22.2801C99.3117 21.7428 99.2403 21.208 99.0987 20.6902C98.9677 20.1997 98.7511 19.7369 98.4594 19.3237C98.1825 18.9305 97.8233 18.6044 97.4075 18.3686C96.9608 18.1239 96.4602 17.9983 95.9526 18.0037C94.8289 18.0037 93.9771 18.3919 93.4095 19.1703C92.8419 19.9477 92.5576 20.9853 92.5576 22.2801C92.5576 22.8925 92.6294 23.4584 92.7825 23.9767C92.9357 24.495 93.1491 24.9434 93.4564 25.32C93.7531 25.6975 94.1072 25.9916 94.5217 26.2032C94.9352 26.4274 95.4204 26.5332 95.9641 26.5332C96.5795 26.5332 97.0878 26.4041 97.5137 26.1566C97.9262 25.916 98.2814 25.5863 98.5541 25.1909C98.826 24.79 99.0279 24.3416 99.1456 23.8359C99.2545 23.3246 99.31 22.8031 99.3112 22.2801ZM104.03 11.6182H106.703V14.1397H104.03V11.6182ZM104.03 16.2246H106.703V28.3123H104.03V16.2246ZM109.092 11.6182H111.766V28.3123H109.092V11.6182ZM119.962 28.6423C118.991 28.6423 118.128 28.4773 117.372 28.1599C116.647 27.8584 115.991 27.4091 115.444 26.8399C114.912 26.2592 114.505 25.5731 114.248 24.825C113.967 23.9991 113.827 23.1305 113.835 22.2568C113.835 21.3376 113.977 20.4903 114.248 19.7119C114.506 18.9641 114.913 18.2784 115.444 17.6979C115.964 17.1321 116.614 16.6963 117.372 16.3779C118.128 16.0596 118.991 15.8946 119.962 15.8946C120.931 15.8946 121.795 16.0596 122.552 16.3779C123.309 16.6963 123.947 17.1447 124.479 17.6979C125.011 18.2782 125.417 18.964 125.674 19.7119C125.946 20.4893 126.087 21.3376 126.087 22.2568C126.087 23.1885 125.946 24.0475 125.674 24.825C125.418 25.5733 125.011 26.2594 124.479 26.8399C123.959 27.4057 123.309 27.8415 122.552 28.1599C121.795 28.4773 120.931 28.6423 119.962 28.6423ZM119.962 26.5332C120.553 26.5332 121.073 26.4041 121.51 26.1566C121.937 25.9159 122.304 25.5817 122.587 25.1782C122.87 24.7784 123.071 24.3183 123.214 23.8117C123.344 23.305 123.415 22.7867 123.415 22.2568C123.415 21.7385 123.344 21.2318 123.214 20.7135C123.092 20.2219 122.879 19.7582 122.587 19.347C122.304 18.9474 121.936 18.6173 121.51 18.3812C121.073 18.1337 120.553 18.0037 119.962 18.0037C119.37 18.0037 118.849 18.1337 118.412 18.3812C117.989 18.6209 117.622 18.9503 117.336 19.347C117.048 19.7606 116.836 20.2235 116.709 20.7135C116.578 21.2173 116.51 21.7358 116.507 22.2568C116.507 22.7867 116.579 23.305 116.709 23.8117C116.839 24.3183 117.052 24.7784 117.336 25.1782C117.619 25.5791 117.975 25.9091 118.412 26.1566C118.849 26.4157 119.37 26.5332 119.962 26.5332ZM126.868 16.2255H128.891V12.5955H131.564V16.2255H133.976V18.2152H131.564V24.6726C131.564 24.954 131.576 25.1909 131.599 25.4025C131.622 25.6034 131.682 25.78 131.765 25.9207C131.855 26.0688 131.993 26.1811 132.155 26.2391C132.333 26.31 132.557 26.3459 132.865 26.3459C133.053 26.3459 133.243 26.3459 133.432 26.3332C133.622 26.3216 133.81 26.2983 134 26.2507V28.3123C133.704 28.3482 133.408 28.3715 133.137 28.4064C132.85 28.4402 132.562 28.4561 132.273 28.454C131.564 28.454 130.996 28.3831 130.57 28.254C130.145 28.124 129.801 27.924 129.565 27.6649C129.317 27.4057 129.163 27.0874 129.068 26.6982C128.976 26.2605 128.925 25.815 128.915 25.3675V18.2376H126.892V16.2226H126.868V16.2255Z" fill="#F6F6F6"/>
<path d="M32.0863 11.617H19.8339L16.0494 0L12.2514 11.6179L0 11.6053L9.9227 18.7916L6.12667 30.3959L16.0494 23.2213L25.9606 30.3959L22.176 18.7916L32.0863 11.617Z" fill="#F6F6F6"/>
<path d="M23.027 21.4197L22.1751 18.7923L16.0494 23.2213L23.027 21.4197Z" fill="#F6F6F6"/>
</g>
<defs>
<clipPath id="clip0_192_6648">
<rect width="134" height="33" fill="white"/>
</clipPath>
</defs>
</svg>
