<svg width="152" height="39" viewBox="0 0 152 39" fill="none" xmlns="http://www.w3.org/2000/svg">
<g clip-path="url(#clip0_192_6674)">
<path d="M67.861 20.3568H71.0345L67.861 30.3149H65.0842L63.4973 24.9972L61.9105 30.3149H59.1339L55.9604 20.3568H59.1339L60.5618 25.6944L62.1089 20.3568H64.8857L66.4325 25.6944L67.861 20.3568Z" fill="#F6F6F6"/>
<path d="M74.4858 26.531C74.8295 27.4604 75.6229 27.9251 76.8658 27.9251C77.6723 27.9251 78.3069 27.6727 78.7699 27.1681L81.1502 28.5424C80.1709 29.9099 78.73 30.5938 76.8261 30.5938C75.1599 30.5938 73.8277 30.0955 72.8294 29.0999C71.8311 28.1042 71.3321 26.8495 71.3321 25.3359C71.3321 23.8358 71.8245 22.5842 72.8096 21.5816C73.7945 20.5793 75.0611 20.078 76.6079 20.078C78.0492 20.078 79.2487 20.5793 80.2077 21.5816C81.1667 22.5845 81.6462 23.8358 81.6462 25.3359C81.6462 25.7606 81.6062 26.1591 81.5271 26.5307L74.4858 26.531ZM74.4263 24.3003H78.69C78.3993 23.2518 77.6988 22.727 76.5884 22.727C75.4379 22.727 74.7168 23.2518 74.4263 24.3003Z" fill="#F6F6F6"/>
<path d="M83.3315 30.3149V15.7765H86.3073V30.3149H83.3315Z" fill="#F6F6F6"/>
<path d="M88.4885 30.3149V15.7765H91.4643V30.3149H88.4885Z" fill="#F6F6F6"/>
<path d="M98.4054 30.5938C96.8987 30.5938 95.6451 30.0891 94.6469 29.08C93.6479 28.0712 93.1496 26.823 93.1496 25.3361C93.1496 23.8492 93.6479 22.6013 94.6469 21.5919C95.6451 20.5832 96.8979 20.0782 98.4054 20.0782C99.3573 20.0782 100.233 20.3107 101.033 20.7754C101.833 21.2404 102.451 21.8577 102.889 22.6275L100.29 24.1412C99.9332 23.3976 99.2915 23.026 98.3662 23.026C97.7182 23.026 97.1823 23.242 96.7592 23.6735C96.3361 24.1052 96.1246 24.6593 96.1246 25.3364C96.1246 26.0135 96.3354 26.5679 96.7592 26.9991C97.1823 27.431 97.7182 27.6465 98.3662 27.6465C99.3048 27.6465 99.9457 27.2751 100.29 26.5313L102.889 28.0251C102.452 28.8084 101.837 29.4327 101.043 29.8974C100.251 30.3613 99.3707 30.5938 98.4054 30.5938Z" fill="#F6F6F6"/>
<path d="M107.152 22.1293C107.337 21.4919 107.711 21.0043 108.273 20.6656C108.835 20.3272 109.454 20.1576 110.128 20.1576V23.5433C109.4 23.4239 108.723 23.5469 108.095 23.9118C107.467 24.2773 107.152 24.9111 107.152 25.8137V30.3148H104.177V20.3568H107.152V22.1293Z" fill="#F6F6F6"/>
<path d="M117.962 20.3568H121.136L117.744 30.0162C117.189 31.5827 116.458 32.7049 115.552 33.382C114.647 34.0591 113.493 34.3648 112.092 34.2982V31.51C112.779 31.51 113.308 31.3871 113.678 31.1415C114.048 30.8959 114.346 30.4677 114.571 29.8571L110.623 20.3574H113.897L116.098 26.4516L117.962 20.3568Z" fill="#F6F6F6"/>
<path d="M128.157 20.078C129.466 20.078 130.583 20.586 131.509 21.6017C132.435 22.6172 132.898 23.8621 132.898 25.3359C132.898 26.8096 132.435 28.0542 131.509 29.07C130.584 30.0855 129.466 30.5935 128.157 30.5935C126.888 30.5935 125.903 30.1886 125.201 29.3785V34.2978H122.226V20.3566H125.201V21.2929C125.903 20.4833 126.888 20.078 128.157 20.078ZM125.866 27.1086C126.309 27.5465 126.875 27.7658 127.562 27.7658C128.25 27.7658 128.815 27.5465 129.257 27.1086C129.701 26.6704 129.923 26.0797 129.923 25.3361C129.923 24.5925 129.701 24.0015 129.257 23.5636C128.815 23.1254 128.249 22.9061 127.562 22.9061C126.875 22.9061 126.309 23.1254 125.866 23.5636C125.423 24.0015 125.202 24.5925 125.202 25.3361C125.202 26.0797 125.423 26.6704 125.866 27.1086Z" fill="#F6F6F6"/>
<path d="M140.197 23.2247H138.154V26.7501C138.154 27.1483 138.312 27.4006 138.63 27.5068C138.947 27.6132 139.47 27.6462 140.197 27.6065V30.3152C138.306 30.5141 136.996 30.3314 136.27 29.7674C135.542 29.2035 135.178 28.1975 135.178 26.7503V23.2247H133.592V20.3568H135.178V18.465L138.154 17.5686V20.3566H140.197V23.2247Z" fill="#F6F6F6"/>
<path d="M150.173 29.0703C149.155 30.0858 147.912 30.5938 146.444 30.5938C144.977 30.5938 143.734 30.0858 142.716 29.0703C141.698 28.0545 141.189 26.8096 141.189 25.3361C141.189 23.8621 141.698 22.6175 142.716 21.602C143.734 20.5862 144.977 20.0782 146.444 20.0782C147.912 20.0782 149.155 20.5862 150.173 21.602C151.192 22.6175 151.701 23.8624 151.701 25.3361C151.701 26.8099 151.192 28.0545 150.173 29.0703ZM144.818 27.0289C145.254 27.4668 145.796 27.6859 146.444 27.6859C147.092 27.6859 147.635 27.4668 148.071 27.0289C148.507 26.5906 148.726 26.0263 148.726 25.3361C148.726 24.6459 148.507 24.0815 148.071 23.6433C147.635 23.2054 147.092 22.986 146.444 22.986C145.796 22.986 145.254 23.2054 144.818 23.6433C144.381 24.0815 144.164 24.6462 144.164 25.3361C144.164 26.0263 144.381 26.5906 144.818 27.0289Z" fill="#F6F6F6"/>
<path d="M52.4226 1.41602C52.2412 0.343825 51.1174 -0.283773 50.1142 0.127065L38.6867 4.80815C37.8529 5.14966 37.9835 6.37469 38.8709 6.52753C39.9565 6.71414 41.2313 6.99147 42.5942 7.40308C42.6299 7.4139 42.6656 7.42499 42.7008 7.43684L42.6477 7.53015C43.9039 10.5382 44.5988 13.8409 44.5988 17.307C44.5988 19.2143 44.3872 21.0718 43.9886 22.8587L50.3257 11.713C51.2455 12.4801 52.1072 13.3149 52.9029 14.21C53.5056 14.8878 54.6134 14.3639 54.4618 13.468L52.4226 1.41602Z" fill="#F6F6F6"/>
<path d="M44.5988 17.307C44.5988 13.8409 43.9039 10.5382 42.6477 7.53015L41.5161 9.52175C43.2908 12.3337 44.3224 15.6652 44.3224 19.2406C44.3224 20.5043 44.1936 21.7376 43.9492 22.9286L43.9886 22.8587C44.3872 21.0718 44.5988 19.2143 44.5988 17.307Z" fill="#F6F6F6"/>
<path d="M41.5161 9.52175L33.031 24.4519L26.8278 10.9516C26.2498 9.69312 25.1232 8.80189 23.8102 8.50955C23.5055 8.44176 23.191 8.4062 22.871 8.40573C21.1655 8.40027 19.6238 9.3936 18.9079 10.9419L12.3708 25.0766L7.81689 17.063C7.32636 16.1998 6.23184 15.8993 5.37218 16.3918L0.90527 18.9512C0.0456143 19.4437 -0.253686 20.5427 0.236848 21.4059L8.97919 36.7896C9.75776 38.1598 11.2068 38.9997 12.7685 38.9997C12.8293 38.9997 12.8909 38.9985 12.952 38.9959C13.1724 38.9866 13.3894 38.9593 13.6019 38.9178C14.9623 38.6523 16.1324 37.7492 16.7271 36.4636L22.853 23.2181L28.6578 35.8514C28.8778 36.3301 29.1781 36.7554 29.5374 37.1157C30.297 37.877 31.3235 38.3456 32.4319 38.3935C32.7771 38.4077 33.1175 38.3789 33.4479 38.3144C34.681 38.0742 35.7712 37.3118 36.4101 36.1875L43.9492 22.9286C44.1936 21.7376 44.3224 20.5043 44.3224 19.2406C44.3224 15.6652 43.2908 12.3337 41.5161 9.52175Z" fill="#F6F6F6"/>
</g>
<defs>
<clipPath id="clip0_192_6674">
<rect width="152" height="39" fill="white"/>
</clipPath>
</defs>
</svg>
