<svg width="94" height="40" viewBox="0 0 94 40" fill="none" xmlns="http://www.w3.org/2000/svg">
<g clip-path="url(#clip0_192_6653)">
<path d="M30.8489 31.3334H22.4046L19.8738 19.7822C19.7533 19.2978 19.5629 18.3361 19.3038 16.8984C19.0821 15.7004 18.8921 14.4969 18.7337 13.289C18.6373 14.0747 18.4807 15.0521 18.2637 16.2175C18.0468 17.3852 17.8323 18.4578 17.6214 19.4376C17.4105 20.4161 16.5332 24.3822 14.9906 31.3334H6.54626L0 4.82056H6.88972L9.76516 18.1131C10.4159 21.0512 10.8618 23.3904 11.1029 25.1318C11.2595 23.8977 11.5403 22.2238 11.944 20.1076C12.3478 17.9926 12.7238 16.2391 13.0732 14.8484L15.4064 4.82056H22.0249L24.2858 14.8484C24.6714 16.4573 25.0631 18.3132 25.4608 20.4161C25.8585 22.5203 26.1236 24.0918 26.2561 25.1318C26.4128 23.7893 26.8406 21.4622 27.5396 18.1493L30.4693 4.82056H37.359L30.8489 31.3334Z" fill="#F6F6F6"/>
<path d="M81.392 31.3334H74.0889V10.6775H67.4872V4.82056H87.9744V10.6775H81.392V31.3334Z" fill="#F6F6F6"/>
<path d="M52.423 38.5641C41.4407 38.5641 32.5384 29.9318 32.5384 19.282C32.5384 8.63231 41.4407 -2.28882e-05 52.423 -2.28882e-05C63.4053 -2.28882e-05 72.3076 8.63231 72.3076 19.282C72.3076 29.9318 63.4053 38.5641 52.423 38.5641ZM52.3905 28.9725C57.0639 28.9725 60.8529 24.6497 60.8529 19.3158C60.8529 13.9819 57.0639 9.65788 52.3905 9.65788C47.717 9.65788 43.9281 13.9819 43.9281 19.3158C43.9281 24.6497 47.717 28.9725 52.3905 28.9725Z" fill="#F6F6F6"/>
<mask id="mask0_192_6653" style="mask-type:luminance" maskUnits="userSpaceOnUse" x="32" y="0" width="41" height="39">
<path d="M52.423 38.5641C41.4407 38.5641 32.5384 29.9318 32.5384 19.282C32.5384 8.63231 41.4407 -2.28882e-05 52.423 -2.28882e-05C63.4053 -2.28882e-05 72.3076 8.63231 72.3076 19.282C72.3076 29.9318 63.4053 38.5641 52.423 38.5641ZM52.3905 28.9725C57.0639 28.9725 60.8529 24.6497 60.8529 19.3158C60.8529 13.9819 57.0639 9.65788 52.3905 9.65788C47.717 9.65788 43.9281 13.9819 43.9281 19.3158C43.9281 24.6497 47.717 28.9725 52.3905 28.9725Z" fill="white"/>
</mask>
<g mask="url(#mask0_192_6653)">
<path fill-rule="evenodd" clip-rule="evenodd" d="M69.3769 28.8836C73.3654 17.7584 66.435 3.60948 52.8352 5.10608C40.9352 6.41589 36.7137 24.4818 48.9863 27.9484C35.8353 20.5234 55.3548 1.83681 62.8558 16.5691C70.1799 30.9541 56.1191 37.8948 45.463 37.703C54.0079 42.6163 66.8869 37.6561 69.3769 28.8836Z" fill="#F6F6F6"/>
</g>
<mask id="mask1_192_6653" style="mask-type:luminance" maskUnits="userSpaceOnUse" x="32" y="0" width="41" height="39">
<path d="M52.423 38.5641C41.4407 38.5641 32.5384 29.9318 32.5384 19.282C32.5384 8.63231 41.4407 -2.28882e-05 52.423 -2.28882e-05C63.4053 -2.28882e-05 72.3076 8.63231 72.3076 19.282C72.3076 29.9318 63.4053 38.5641 52.423 38.5641ZM52.3905 28.9725C57.0639 28.9725 60.8529 24.6497 60.8529 19.3158C60.8529 13.9819 57.0639 9.65788 52.3905 9.65788C47.717 9.65788 43.9281 13.9819 43.9281 19.3158C43.9281 24.6497 47.717 28.9725 52.3905 28.9725Z" fill="white"/>
</mask>
<g mask="url(#mask1_192_6653)">
<path fill-rule="evenodd" clip-rule="evenodd" d="M35.2861 30.9274C42.8158 40.3792 58.562 41.2746 64.2671 27.8941C69.2587 16.1875 55.8745 2.92863 46.5782 12.5118C59.7346 4.16269 65.7855 31.9204 49.2439 31.2528C33.0916 30.602 34.3461 13.9785 39.991 4.20005C31.3671 9.57853 29.0134 24.0822 35.2861 30.9274Z" fill="#F6F6F6"/>
</g>
</g>
<defs>
<clipPath id="clip0_192_6653">
<rect width="94" height="39.7692" fill="white"/>
</clipPath>
</defs>
</svg>
