<svg width="32" height="32" viewBox="0 0 32 32" fill="none" xmlns="http://www.w3.org/2000/svg">
<g clip-path="url(#clip0_11_6927)">
<path d="M32 16C32 19.1645 31.0616 22.2579 29.3035 24.8891C27.5454 27.5203 25.0466 29.5711 22.1229 30.7821C19.1993 31.9931 15.9823 32.3099 12.8786 31.6926C9.77487 31.0752 6.92394 29.5514 4.6863 27.3137C2.44866 25.0761 0.924806 22.2251 0.307443 19.1214C-0.309921 16.0177 0.00693248 12.8007 1.21793 9.87707C2.42894 6.95345 4.4797 4.45459 7.11088 2.69649C9.74207 0.938384 12.8355 0 16 0C20.2435 0 24.3131 1.68571 27.3137 4.68629C30.3143 7.68687 32 11.7565 32 16Z" fill="#F7931A"/>
<path fill-rule="evenodd" clip-rule="evenodd" d="M11.3717 7.30618L15.0488 8.29091L15.8706 5.22764L17.7092 5.72655L16.9193 8.66328L18.419 9.06618L19.2103 6.09746L21.0808 6.59782L20.275 9.58255C20.275 9.58255 23.3295 10.2589 24.0481 12.7433C24.7666 15.2276 22.4684 16.5324 21.7586 16.5818C21.7586 16.5818 24.435 18.0495 23.5157 20.9367C22.5964 23.824 19.7746 24.3404 16.8059 23.6785L16.0001 26.7738L14.1295 26.2735L14.9514 23.2262L13.4677 22.8218L12.6459 25.8909L10.7899 25.392L11.6132 22.3375L7.83862 21.3193L8.7899 19.2073C8.7899 19.2073 9.85462 19.4982 10.2575 19.5942C10.6604 19.6902 10.9194 19.2713 11.0328 18.8524C11.1463 18.4335 12.8554 11.4909 13.0168 10.9193C13.1783 10.3476 13.1128 9.90109 12.435 9.72509C11.7572 9.54909 10.835 9.27418 10.835 9.27418L11.3717 7.30618ZM15.0808 16.5004L14.0626 20.5484C14.0626 20.5484 19.1114 22.3709 19.7572 19.8065C20.403 17.2422 15.0808 16.5004 15.0808 16.5004ZM15.5492 14.5804L16.5484 10.8713C16.5484 10.8713 20.8714 11.6451 20.339 13.7091C19.8066 15.7731 17.2583 14.9818 15.5492 14.5804Z" fill="white"/>
</g>
<defs>
<clipPath id="clip0_11_6927">
<rect width="32" height="32" fill="white"/>
</clipPath>
</defs>
</svg>
