<svg width="32" height="32" viewBox="0 0 32 32" fill="none" xmlns="http://www.w3.org/2000/svg">
<g clip-path="url(#clip0_11_6950)">
<mask id="mask0_11_6950" style="mask-type:luminance" maskUnits="userSpaceOnUse" x="0" y="0" width="32" height="32">
<path d="M16 32C24.8366 32 32 24.8366 32 16C32 7.16344 24.8366 0 16 0C7.16344 0 0 7.16344 0 16C0 24.8366 7.16344 32 16 32Z" fill="white"/>
</mask>
<g mask="url(#mask0_11_6950)">
<path d="M38.5883 0H-6.58813V32H38.5883V0Z" fill="#024DA1"/>
<path d="M15.991 3.82807L15.6256 5.03913L14.4329 5.03767L15.4004 5.77687L15.0377 6.97222L15.991 6.23302L16.9443 6.97222L16.5827 5.77746L17.5497 5.03767H16.3564L15.991 3.82807Z" fill="#FFF100"/>
<path d="M19.9796 8.38167L20.934 7.64131L21.8862 8.38167L21.524 7.18662L22.4921 6.44597H21.2974L20.9329 5.23607L20.5681 6.44858L19.3748 6.44597L20.3417 7.18662L19.9796 8.38167Z" fill="#FFF100"/>
<path d="M24.5354 11.4694L25.4887 12.2083L25.1254 11.0132L26.0935 10.2752H24.9014L24.5354 9.06415L24.1697 10.2767L22.9773 10.2752L23.9457 11.0132L23.5821 12.2083L24.5354 11.4694Z" fill="#FFF100"/>
<path d="M25.8447 16.704L26.798 17.4447L26.4359 16.2493L27.404 15.5101H26.2107L25.8447 14.2991L25.4799 15.5116L24.2866 15.5101L25.2548 16.2493L24.8926 17.4447L25.8447 16.704Z" fill="#FFF100"/>
<path d="M24.5354 19.5642L24.9014 20.7753H26.0935L25.1254 21.5145L25.4887 22.7098L24.5354 21.9695L23.5821 22.7098L23.9457 21.5145L22.9773 20.7753L24.1697 20.7767L24.5354 19.5642Z" fill="#FFF100"/>
<path d="M20.9192 23.408L21.2837 24.6179H22.4773L21.5089 25.3571L21.8725 26.5521L20.9192 25.8132L19.9659 26.5521L20.3281 25.3571L19.3611 24.6179L20.5532 24.6191L20.9192 23.408Z" fill="#FFF100"/>
<path d="M16.0002 24.7997L16.3648 26.0096H17.5584L16.5902 26.7485L16.9536 27.9439L16.0002 27.2049L15.0469 27.9439L15.4091 26.7485L14.4421 26.0096L15.6343 26.0108L16.0002 24.7997Z" fill="#FFF100"/>
<path d="M11.0649 23.408L11.4295 24.6179H12.6231L11.6546 25.3571L12.0183 26.5521L11.0649 25.8132L10.1116 26.5521L10.4738 25.3571L9.50684 24.6179L10.699 24.6191L11.0649 23.408Z" fill="#FFF100"/>
<path d="M7.448 19.5648L7.81251 20.7747H9.00611L8.03797 21.5139L8.40131 22.7092L7.448 21.97L6.49469 22.7092L6.85687 21.5139L5.88989 20.7747L7.08204 20.7759L7.448 19.5648Z" fill="#FFF100"/>
<path d="M6.12354 14.3142L6.48834 15.5241H7.68165L6.7135 16.263L7.07685 17.4583L6.12354 16.7194L5.17023 17.4583L5.53241 16.263L4.56543 15.5241L5.75758 15.5252L6.12354 14.3142Z" fill="#FFF100"/>
<path d="M7.448 9.07927L7.81251 10.2892H9.00611L8.03797 11.0284L8.40131 12.2237L7.448 11.4845L6.49469 12.2237L6.85687 11.0284L5.88989 10.2892L7.08204 10.2906L7.448 9.07927Z" fill="#FFF100"/>
<path d="M11.0574 5.23549L11.4219 6.44538H12.6155L11.6473 7.18458L12.0107 8.37993L11.0574 7.64073L10.1041 8.37993L10.4662 7.18458L9.49927 6.44538L10.6914 6.44655L11.0574 5.23549Z" fill="#FFF100"/>
</g>
</g>
<defs>
<clipPath id="clip0_11_6950">
<rect width="32" height="32" fill="white"/>
</clipPath>
</defs>
</svg>
