<svg width="32" height="32" viewBox="0 0 32 32" fill="none" xmlns="http://www.w3.org/2000/svg">
<g clip-path="url(#clip0_11_6942)">
<path d="M16 32C19.1646 32 22.258 31.0616 24.8892 29.3035C27.5204 27.5454 29.5711 25.0466 30.7821 22.1229C31.9931 19.1993 32.31 15.9823 31.6926 12.8786C31.0753 9.77486 29.5514 6.92393 27.3138 4.68629C25.0761 2.44865 22.2252 0.924799 19.1215 0.307435C16.0178 -0.309928 12.8007 0.00692486 9.87711 1.21793C6.9535 2.42893 4.45464 4.47969 2.69654 7.11088C0.938432 9.74206 4.84406e-05 12.8355 4.84406e-05 16C-0.00513159 18.1026 0.405185 20.1855 1.20743 22.1291C2.00967 24.0726 3.18802 25.8385 4.67479 27.3253C6.16156 28.812 7.92744 29.9904 9.87099 30.7926C11.8145 31.5949 13.8974 32.0052 16 32Z" fill="#2775CA"/>
<path d="M20.4 18.5338C20.4 16.2065 19.0007 15.3993 16.2007 15.0662C14.1992 14.8 13.8007 14.2662 13.8007 13.3338C13.8007 12.4015 14.4669 11.7993 15.7992 11.7993C17.0007 11.7993 17.6669 12.1993 18 13.2C18.0357 13.2964 18.1003 13.3795 18.1848 13.438C18.2694 13.4966 18.3698 13.5277 18.4727 13.5273H19.5389C19.6006 13.5289 19.662 13.5179 19.7194 13.495C19.7768 13.4721 19.8289 13.4378 19.8726 13.3941C19.9163 13.3504 19.9506 13.2983 19.9735 13.2409C19.9964 13.1835 20.0074 13.1221 20.0058 13.0604V12.9949C19.877 12.2723 19.5131 11.6126 18.9707 11.1181C18.4284 10.6236 17.7379 10.322 17.0065 10.2604V8.66036C17.0065 8.39418 16.8058 8.19491 16.4727 8.128H15.472C15.2058 8.128 15.0065 8.32727 14.9396 8.66036V10.1993C12.9338 10.4727 11.6669 11.7993 11.6669 13.4662C11.6669 15.6669 13.0007 16.5338 15.8007 16.8669C17.6669 17.2 18.2734 17.5942 18.2734 18.6662C18.2734 19.7382 17.341 20.4669 16.0741 20.4669C14.3403 20.4669 13.7469 19.7396 13.5403 18.7331C13.5213 18.6206 13.4634 18.5185 13.3767 18.4443C13.2901 18.3701 13.1802 18.3287 13.0661 18.3273H11.9272C11.8655 18.3259 11.8042 18.337 11.7469 18.36C11.6896 18.3829 11.6376 18.4173 11.594 18.4609C11.5503 18.5046 11.516 18.5566 11.493 18.6139C11.4701 18.6711 11.4589 18.7325 11.4603 18.7942V18.8611C11.728 20.528 12.7941 21.728 14.9949 22.0611V23.6611C14.9949 23.9273 15.1941 24.128 15.5272 24.1949H16.528C16.7941 24.1949 16.9949 23.9942 17.0603 23.6611V22.0611C19.0603 21.728 20.3941 20.3273 20.3941 18.528L20.4 18.5338Z" fill="white"/>
<path d="M12.5992 25.5331C10.681 24.8295 9.02501 23.5539 7.85517 21.8788C6.68533 20.2037 6.058 18.2097 6.058 16.1665C6.058 14.1234 6.68533 12.1294 7.85517 10.4543C9.02501 8.77916 10.681 7.50358 12.5992 6.8C12.7272 6.74464 12.8347 6.65068 12.9067 6.53124C12.9786 6.41179 13.0115 6.27285 13.0006 6.13382V5.2C13.0096 5.07751 12.9739 4.95592 12.9001 4.85777C12.8263 4.75961 12.7194 4.69154 12.5992 4.66618C12.5054 4.6564 12.4111 4.68009 12.333 4.73309C9.90598 5.50451 7.78738 7.02824 6.28388 9.08374C4.78037 11.1392 3.96997 13.6199 3.96997 16.1665C3.96997 18.7132 4.78037 21.1938 6.28388 23.2493C7.78738 25.3048 9.90598 26.8286 12.333 27.6C12.3884 27.6322 12.4507 27.6508 12.5147 27.6543C12.5787 27.6578 12.6427 27.6461 12.7013 27.6201C12.7599 27.5942 12.8115 27.5547 12.8519 27.5049C12.8923 27.4551 12.9204 27.3965 12.9337 27.3338C13.0007 27.2669 13.0006 27.2 13.0006 27.0662V26.1338C13.0006 25.9331 12.7999 25.6669 12.5992 25.5331ZM19.6668 4.73309C19.6113 4.70089 19.5489 4.68232 19.4848 4.67891C19.4207 4.6755 19.3567 4.68734 19.2981 4.71346C19.2395 4.73958 19.1879 4.77924 19.1475 4.82918C19.1072 4.87912 19.0793 4.93791 19.0661 5.00073C19.0007 5.06618 19.0007 5.13309 19.0007 5.26691V6.19927C19.0119 6.33372 19.0538 6.46381 19.1231 6.57955C19.1925 6.69528 19.2874 6.79359 19.4007 6.86691C21.3189 7.57049 22.9748 8.84606 24.1447 10.5212C25.3145 12.1963 25.9418 14.1903 25.9418 16.2335C25.9418 18.2766 25.3145 20.2706 24.1447 21.9457C22.9748 23.6208 21.3189 24.8964 19.4007 25.6C19.2728 25.6554 19.1655 25.7494 19.0937 25.8689C19.022 25.9884 18.9895 26.1273 19.0007 26.2662V27.2C18.9916 27.3223 19.0271 27.4437 19.1007 27.5418C19.1742 27.64 19.2808 27.7082 19.4007 27.7338C19.4945 27.7436 19.5888 27.7199 19.6668 27.6669C22.0929 26.8848 24.2085 25.3534 25.7091 23.2929C27.2098 21.2324 28.0183 18.7491 28.0183 16.2C28.0183 13.651 27.2098 11.1676 25.7091 9.1071C24.2085 7.04661 22.0929 5.51518 19.6668 4.73309Z" fill="white"/>
</g>
<defs>
<clipPath id="clip0_11_6942">
<rect width="32" height="32" fill="white"/>
</clipPath>
</defs>
</svg>
