<svg width="32" height="32" viewBox="0 0 32 32" fill="none" xmlns="http://www.w3.org/2000/svg">
<g clip-path="url(#clip0_11_6934)">
<path d="M16 32C24.8366 32 32 24.8366 32 16C32 7.16344 24.8366 0 16 0C7.16344 0 0 7.16344 0 16C0 24.8366 7.16344 32 16 32Z" fill="#FF6600"/>
<path d="M15.97 5.2353C21.955 5.2353 26.795 10.0753 26.795 16.0593C26.7909 17.2256 26.6026 18.3838 26.237 19.4913H23.011V10.3973L15.971 17.4373L8.93097 10.3973V19.4913H5.70397C5.33869 18.3838 5.1507 17.2255 5.14697 16.0593C5.14697 10.0753 9.98697 5.2353 15.971 5.2353H15.97ZM14.358 19.0203L16 20.6353L17.613 19.0213L20.664 15.9413V21.6613H25.211C24.2465 23.2475 22.8897 24.5585 21.2712 25.4679C19.6528 26.3773 17.8274 26.8545 15.971 26.8533C12.069 26.8533 8.63697 24.7713 6.73097 21.6613H11.277V15.9413L14.357 19.0213L14.358 19.0203Z" fill="white"/>
</g>
<defs>
<clipPath id="clip0_11_6934">
<rect width="32" height="32" fill="white"/>
</clipPath>
</defs>
</svg>
